<svg xmlns="http://www.w3.org/2000/svg" width="48" height="48" viewBox="0 0 24 24" fill="none">
  <path d="M20.04 12.9H17.1C16.7685 12.9 16.5 12.6315 16.5 12.3C16.5 11.9685 16.7685 11.7 17.1 11.7H19.8V5.09999H15.3C14.9685 5.09999 14.7 4.83149 14.7 4.49999C14.7 4.16849 14.9685 3.89999 15.3 3.89999H20.04C20.2671 3.89999 20.4873 3.98069 20.6604 4.12709C20.8761 4.30979 21 4.57679 21 4.85999V11.94C21 12.4701 20.5701 12.9 20.04 12.9Z" fill="#FFD25F"/>
  <path d="M15.7977 7.69769C15.6084 7.42559 15.6756 7.05179 15.9477 6.86249L19.9401 4.08569L20.0676 4.00079L20.7327 4.99949L20.6103 5.08109L16.6329 7.84769C16.3608 8.03699 15.987 7.96979 15.7977 7.69769Z" fill="#FFD25F"/>
  <path d="M15.6 14.7V16.5C15.6 16.8315 15.3315 17.1 15 17.1H4.2C3.8685 17.1 3.6 16.8315 3.6 16.5V14.7C3.6 13.8 5.1 12.9 5.1 11.4V7.80001C5.1 6.30871 7.1148 5.10001 9.6 5.10001C12.0852 5.10001 14.1 6.30871 14.1 7.80001V11.4C14.1 12.9 15.6 13.8 15.6 14.7Z" fill="#FFD25F"/>
  <path d="M15 17.7H4.2C3.5382 17.7 3 17.1618 3 16.5V14.7C3 14.112 3.351 13.6296 3.7227 13.1187C4.1049 12.5934 4.5 12.0501 4.5 11.4V7.8C4.5 5.9496 6.7401 4.5 9.6 4.5C12.4599 4.5 14.7 5.9496 14.7 7.8V11.4C14.7 12.0501 15.0951 12.5934 15.4773 13.1187C15.849 13.6296 16.2 14.112 16.2 14.7V16.5C16.2 17.1618 15.6618 17.7 15 17.7ZM9.6 5.7C8.5053 5.7 7.4847 5.9505 6.7266 6.4053C6.3432 6.6354 5.7 7.1226 5.7 7.8V11.4C5.7 12.4404 5.1417 13.2078 4.6932 13.8246C4.4508 14.1579 4.2 14.5023 4.2 14.7V16.5H15V14.7C15 14.5023 14.7492 14.1579 14.5068 13.8246C14.0583 13.2078 13.5 12.4404 13.5 11.4V7.8C13.5 7.1226 12.8568 6.6354 12.4734 6.4053C11.7153 5.9505 10.695 5.7 9.6 5.7Z" fill="#FFD25F"/>
  <path d="M12.6738 18.9C12.1929 20.1282 10.9962 21 9.6 21C8.2038 21 7.0071 20.1282 6.5262 18.9H12.6738Z" fill="#FFD25F"/>
  <path d="M10.2 4.20001C10.2 3.86864 9.93137 3.60001 9.6 3.60001C9.26863 3.60001 9 3.86864 9 4.20001V5.40001C9 5.73138 9.26863 6.00001 9.6 6.00001C9.93137 6.00001 10.2 5.73138 10.2 5.40001V4.20001Z" fill="#FFD25F"/>
  <path d="M9.6 6.6C8.9382 6.6 8.4 6.0618 8.4 5.4V4.2C8.4 3.5382 8.9382 3 9.6 3C10.2618 3 10.8 3.5382 10.8 4.2V5.4C10.8 6.0618 10.2618 6.6 9.6 6.6ZM9.6 4.2V5.4H9.6009L9.6 4.2Z" fill="#FFD25F"/>
</svg>