<svg xmlns="http://www.w3.org/2000/svg" width="24" height="24" viewBox="0 0 24 24" fill="none">
  <path fill-rule="evenodd" clip-rule="evenodd" d="M10.8 4.58777V4.2C10.8 3.5382 11.3382 3 12 3C12.6618 3 13.2 3.5382 13.2 4.2V4.58777C14.0849 4.71701 14.9291 4.98497 15.6207 5.3649C16.7679 5.9952 17.4 6.8601 17.4 7.8V13.5C17.4 14.1201 17.8689 14.6574 18.3225 15.177L18.3231 15.1777C18.7741 15.6943 19.2 16.1823 19.2 16.8V17.1C19.2 17.7618 18.6618 18.3 18 18.3H14.9851C14.8341 19.8139 13.553 21 12 21C10.447 21 9.16588 19.8139 9.01488 18.3H5.99999C5.33819 18.3 4.79999 17.7618 4.79999 17.1V16.8C4.79999 16.1823 5.22591 15.6943 5.67689 15.1777L5.67749 15.177C6.13109 14.6574 6.59999 14.1201 6.59999 13.5V7.8C6.59999 6.8601 7.23179 5.9952 8.37929 5.3649C9.07091 4.98497 9.91508 4.71701 10.8 4.58777Z" fill="black" fill-opacity="0.25"/>
</svg>