<?xml version="1.0" encoding="UTF-8"?>
<svg id="Layer_2" data-name="Layer 2" xmlns="http://www.w3.org/2000/svg" xmlns:xlink="http://www.w3.org/1999/xlink" viewBox="0 0 800 800">
  <defs>
    <style>
      .cls-1 {
        fill: none;
      }

      .cls-2 {
        fill: url(#linear-gradient);
      }
    </style>
    <linearGradient id="linear-gradient" x1="290.12" y1="400.96" x2="709.88" y2="379.03" gradientUnits="userSpaceOnUse">
      <stop offset="0" stop-color="#6262b2"/>
      <stop offset="1" stop-color="#f7a477" stop-opacity=".5"/>
    </linearGradient>
  </defs>
  <g id="_임시_저장된_글" data-name="임시 저장된 글">
    <g id="_임시_저장된_글-2" data-name="임시 저장된 글">
      <g id="_스터디_정보" data-name="스터디 정보">
        <circle class="cls-2" cx="500" cy="390" r="200"/>
        <rect x="200" y="230" width="320" height="40" rx="20" ry="20"/>
        <rect x="200" y="330" width="320" height="40" rx="20" ry="20"/>
        <rect x="200" y="430" width="320" height="40" rx="20" ry="20"/>
        <rect x="200" y="530" width="240" height="40" rx="20" ry="20"/>
        <path d="M580,700H140c-22.06,0-40-17.94-40-40V140c0-22.06,17.94-40,40-40h440c22.06,0,40,17.94,40,40V660c0,22.06-17.94,40-40,40ZM140,140V660h440s.03,0,.03,0l-.03-520H140Z"/>
      </g>
      <rect id="frame" class="cls-1" width="800" height="800"/>
    </g>
  </g>
</svg>