<svg xmlns="http://www.w3.org/2000/svg" width="24" height="24" viewBox="0 0 24 24" fill="none">
  <path d="M20.4 11.4H3.6C3.2685 11.4 3 11.1315 3 10.8V6.90001C3 6.23821 3.5382 5.70001 4.2 5.70001H6C6.3315 5.70001 6.6 5.96851 6.6 6.30001V7.20001C6.6 7.53091 6.8691 7.80001 7.2 7.80001C7.5309 7.80001 7.8 7.53091 7.8 7.20001V6.30001C7.8 5.96851 8.0685 5.70001 8.4 5.70001H15.6C15.9315 5.70001 16.2 5.96851 16.2 6.30001V7.20001C16.2 7.53091 16.4691 7.80001 16.8 7.80001C17.1309 7.80001 17.4 7.53091 17.4 7.20001V6.30001C17.4 5.96851 17.6685 5.70001 18 5.70001H19.8C20.4618 5.70001 21 6.23821 21 6.90001V10.8C21 11.1315 20.7315 11.4 20.4 11.4ZM4.2 10.2H19.8V6.90001V6.89911L18.6 6.89971V7.20001C18.6 8.19241 17.7924 9.00001 16.8 9.00001C15.8076 9.00001 15 8.19241 15 7.20001V6.90001H9V7.20001C9 8.19241 8.1924 9.00001 7.2 9.00001C6.2076 9.00001 5.4 8.19241 5.4 7.20001V6.90001H4.2V10.2Z" fill="black"/>
  <path d="M19.8 21H4.2C3.5382 21 3 20.4618 3 19.8V10.8C3 10.4685 3.2685 10.2 3.6 10.2H20.4C20.7315 10.2 21 10.4685 21 10.8V19.8C21 20.4618 20.4618 21 19.8 21ZM4.2 11.4V19.8H19.8V11.4H4.2Z" fill="black"/>
  <path d="M7.19999 9C6.20759 9 5.39999 8.1924 5.39999 7.2V4.8C5.39999 3.8076 6.20759 3 7.19999 3C7.68059 3 8.13269 3.1872 8.47259 3.5274C8.81249 3.8676 8.99999 4.3194 8.99999 4.8V7.2C8.99999 8.1924 8.19239 9 7.19999 9ZM7.19999 4.2C6.86909 4.2 6.59999 4.4691 6.59999 4.8V7.2C6.59999 7.5309 6.86909 7.8 7.19999 7.8C7.53089 7.8 7.79999 7.5309 7.79999 7.2V4.8C7.79999 4.6398 7.73759 4.4892 7.62419 4.3758C7.51079 4.2624 7.36019 4.2 7.19999 4.2Z" fill="black"/>
  <path d="M16.8 9C15.8076 9 15 8.1924 15 7.2V4.8C15 3.8076 15.8076 3 16.8 3C17.2806 3 17.7327 3.1872 18.0726 3.5274C18.4125 3.8676 18.6 4.3194 18.6 4.8V7.2C18.6 8.1924 17.7924 9 16.8 9ZM16.8 4.2C16.4691 4.2 16.2 4.4691 16.2 4.8V7.2C16.2 7.5309 16.4691 7.8 16.8 7.8C17.1309 7.8 17.4 7.5309 17.4 7.2V4.8C17.4 4.6398 17.3376 4.4892 17.2242 4.3758C17.1108 4.2624 16.9602 4.2 16.8 4.2Z" fill="black"/>
</svg>