<svg xmlns="http://www.w3.org/2000/svg" width="16" height="16" viewBox="0 0 16 16" fill="none">
  <path d="M3.99993 16C2.84794 16 1.7706 15.5165 0.999136 14.6453C0.411669 13.9816 0.061536 13.1365 0.00766938 12.2517C-0.0629973 11.0901 0.357003 9.98609 1.17167 9.17169L9.27967 1.06343C9.38393 0.959163 9.55273 0.959163 9.65673 1.06343C9.761 1.1677 9.761 1.3365 9.65673 1.4405L1.54874 9.54876C0.894069 10.2034 0.533269 11.0741 0.533269 12C0.533269 12.9258 0.893803 13.7965 1.54874 14.4512C2.90047 15.8029 5.09967 15.8029 6.4514 14.4512L14.7482 6.15436C15.6839 5.21863 15.6839 3.69596 14.7482 2.76023C14.2949 2.3069 13.6922 2.0573 13.0511 2.0573C12.4101 2.0573 11.8074 2.3069 11.3541 2.76023L3.045 11.0693C2.52527 11.589 2.52527 12.4349 3.045 12.9549C3.56474 13.4746 4.4106 13.4746 4.9306 12.9549L4.9426 12.9429L13.0509 4.83463C13.1551 4.73036 13.3239 4.73036 13.4279 4.83463C13.5322 4.93889 13.5322 5.1077 13.4279 5.2117L5.30767 13.332C4.57967 14.06 3.3954 14.06 2.66767 13.332C1.93994 12.6042 1.93994 11.42 2.66767 10.692L2.67994 10.6797L10.9767 2.38343C11.5506 1.80956 12.3202 1.5029 13.1351 1.52556C13.8311 1.54503 14.5013 1.81383 15.0175 2.28103C16.2679 3.4133 16.3039 5.3533 15.1253 6.53196L6.82847 14.8288C6.073 15.5842 5.06847 16 3.99993 16Z" fill="#262D31"/>
</svg>