<svg xmlns="http://www.w3.org/2000/svg" width="24" height="24" viewBox="0 0 24 24" fill="none">
  <path d="M20.4 21C20.2464 21 20.0928 20.9415 19.9758 20.8242L3.17579 4.02419C2.94149 3.78989 2.94149 3.41009 3.17579 3.17579C3.41009 2.94149 3.78989 2.94149 4.02419 3.17579L20.8242 19.9758C21.0585 20.2101 21.0585 20.5899 20.8242 20.8242C20.7069 20.9415 20.5536 21 20.4 21Z" fill="black"/>
  <path d="M3.59999 21C3.44639 21 3.29279 20.9415 3.17579 20.8242C2.94149 20.5899 2.94149 20.2101 3.17579 19.9758L19.9758 3.17579C20.2101 2.94149 20.5899 2.94149 20.8242 3.17579C21.0585 3.41009 21.0585 3.78989 20.8242 4.02419L4.02419 20.8242C3.90689 20.9415 3.75359 21 3.59999 21Z" fill="black"/>
</svg>