<svg width="24" height="24" viewBox="0 0 24 24" fill="none" xmlns="http://www.w3.org/2000/svg">
  <path d="M11.7654 14.2342L10.634 15.3656L13.034 17.7655L14.1653 16.6342L11.7654 14.2342Z" fill="#F7A477" />
  <path
    d="M11.6688 19.6H10.4C9.51759 19.6 8.79999 18.8824 8.79999 18V16.7312C8.79999 16.304 8.96639 15.902 9.26879 15.6L20.1172 4.75162C20.344 4.52482 20.6452 4.40002 20.9656 4.40002H21.0344C21.3548 4.40002 21.6564 4.52482 21.8828 4.75162L23.6484 6.51722C23.8752 6.74402 24 7.04522 24 7.36562V7.43442C24 7.75482 23.8752 8.05642 23.6484 8.28282L12.8 19.1312C12.4976 19.4336 12.096 19.6 11.6688 19.6ZM21 6.13122L10.4 16.7312V18H11.6688L22.2688 7.40002L21 6.13122Z"
    fill="#F7A477"
  />
  <path
    d="M2.8 19.6H0.8C0.358 19.6 0 19.242 0 18.8C0 18.358 0.358 18 0.8 18H2.8C3.242 18 3.6 18.358 3.6 18.8C3.6 19.242 3.242 19.6 2.8 19.6Z"
    fill="#F7A477"
  />
  <path
    d="M9.99999 19.6H5.19999C4.75799 19.6 4.39999 19.242 4.39999 18.8C4.39999 18.358 4.75799 18 5.19999 18H9.99999C10.442 18 10.8 18.358 10.8 18.8C10.8 19.242 10.442 19.6 9.99999 19.6Z"
    fill="#F7A477"
  />
</svg>