<svg width="56" height="36" viewBox="0 0 56 36" fill="none" xmlns="http://www.w3.org/2000/svg">
<path fill-rule="evenodd" clip-rule="evenodd" d="M24.32 35.36H27.2382C28.2208 35.36 29.1444 34.9772 29.84 34.2817L54.7913 9.3304C55.3129 8.80968 55.6 8.116 55.6 7.37908V7.22084C55.6 6.48392 55.3129 5.79116 54.7913 5.26952L50.7304 1.20864C50.2097 0.686999 49.516 0.39996 48.7791 0.39996H48.6208C47.8839 0.39996 47.1912 0.686999 46.6695 1.20864L21.7182 26.16C21.0227 26.8546 20.64 27.7792 20.64 28.7617V31.68C20.64 31.68 20.64 31.68 20.64 31.68H12.3599C11.3433 31.68 10.5199 32.5034 10.5199 33.52C10.5199 34.5366 11.3433 35.36 12.3599 35.36H23.3999C23.5305 35.36 23.6579 35.3464 23.7808 35.3206C23.9568 35.3465 24.1368 35.36 24.32 35.36ZM28.7619 24.3198L48.7 4.38172L51.6182 7.29996L31.6801 27.2381L28.7619 24.3198ZM26.1597 26.922L24.32 28.7617V31.68H27.2382L29.0779 29.8402L26.1597 26.922ZM6.83996 35.36H2.23996C1.22336 35.36 0.39996 34.5366 0.39996 33.52C0.39996 32.5034 1.22336 31.68 2.23996 31.68H6.83996C7.85656 31.68 8.67996 32.5034 8.67996 33.52C8.67996 34.5366 7.85656 35.36 6.83996 35.36Z" fill="#F7A477"/>
</svg>
