<svg xmlns="http://www.w3.org/2000/svg" width="24" height="24" viewBox="0 0 24 24" fill="none">
  <path d="M3.60001 7.80002L11.5758 15.7758C11.8101 16.0101 12.1899 16.0101 12.4242 15.7758L20.4 7.80002H3.60001Z" fill="black"/>
  <path d="M12 16.551C11.6928 16.551 11.3853 16.434 11.1516 16.2L3.17581 8.22421C3.00421 8.05261 2.95291 7.79461 3.04561 7.57021C3.13861 7.34611 3.35731 7.19971 3.60001 7.19971H20.4C20.6427 7.19971 20.8614 7.34581 20.9544 7.57021C21.0474 7.79431 20.9958 8.05261 20.8242 8.22421L12.8484 16.2C12.6144 16.434 12.3072 16.551 12 16.551ZM5.04841 8.40001L12 15.3516L18.9516 8.40001H5.04841Z" fill="black"/>
</svg>