<svg xmlns="http://www.w3.org/2000/svg" width="40" height="40" viewBox="0 0 16 18" fill="none">
  <path d="M10 14.7C13.3137 14.7 16 12.0137 16 8.69998C16 5.38627 13.3137 2.69998 10 2.69998C6.68629 2.69998 4 5.38627 4 8.69998C4 12.0137 6.68629 14.7 10 14.7Z" fill="url(#paint0_linear_1677_540)"/>
  <path d="M1.59911 12.6C1.33751 12.6 1.07441 12.5151 0.853606 12.3396C0.334606 11.9274 0.247907 11.1726 0.660106 10.6536L8.76041 0.453582C9.17261 -0.0654178 9.92741 -0.152118 10.4464 0.260082C10.9654 0.672282 11.0521 1.42708 10.6399 1.94608L2.53961 12.1464C2.30261 12.4446 1.95251 12.6003 1.59911 12.6003V12.6Z" fill="black"/>
  <path d="M12.4 12.6H1.60001C0.937309 12.6 0.400009 12.0627 0.400009 11.4C0.400009 10.7373 0.937309 10.2 1.60001 10.2H12.4C13.0627 10.2 13.6 10.7373 13.6 11.4C13.6 12.0627 13.0627 12.6 12.4 12.6Z" fill="black"/>
  <path d="M10 18C9.33732 18 8.80002 17.4627 8.80002 16.8V8.39998C8.80002 7.73728 9.33732 7.19998 10 7.19998C10.6627 7.19998 11.2 7.73728 11.2 8.39998V16.8C11.2 17.4627 10.6627 18 10 18Z" fill="black"/>
  <defs>
    <linearGradient id="paint0_linear_1677_540" x1="3.7036" y1="9.02878" x2="16.2964" y2="8.37088" gradientUnits="userSpaceOnUse">
      <stop stop-color="#6262B2"/>
      <stop offset="1" stop-color="#F7A477" stop-opacity="0.5"/>
    </linearGradient>
  </defs>
</svg>