<svg xmlns="http://www.w3.org/2000/svg" width="40" height="40" viewBox="0 0 24 24" fill="none">
  <path d="M19.2001 12.1607C19.2001 11.5687 19.1511 11.1367 19.045 10.6887H12.1471V13.3607H16.196C16.1144 14.0247 15.6736 15.0247 14.694 15.6967L14.6803 15.7861L16.8613 17.4419L17.0124 17.4567C18.4001 16.2007 19.2001 14.3527 19.2001 12.1607Z" fill="#4285F4"/>
  <path d="M12.1466 19.2008C14.1303 19.2008 15.796 18.5607 17.0124 17.4567L14.694 15.6967C14.0736 16.1207 13.2405 16.4167 12.1466 16.4167C10.2038 16.4167 8.55482 15.1607 7.96702 13.4247L7.88086 13.4319L5.61302 15.1519L5.58336 15.2327C6.79151 17.5847 9.27314 19.2008 12.1466 19.2008Z" fill="#34A853"/>
  <path d="M7.96702 13.4247C7.81192 12.9767 7.72258 12.4967 7.72258 12.0008C7.72258 11.5047 7.81235 11.0247 7.95929 10.5768L7.95518 10.4813L5.65892 8.73371L5.58379 8.76873C5.08585 9.74474 4.80013 10.8408 4.80013 12.0008C4.80013 13.1608 5.08543 14.2567 5.58336 15.2327L7.96702 13.4247Z" fill="#FBBC05"/>
  <path d="M12.1467 7.58476C13.5262 7.58476 14.4568 8.16876 14.9875 8.65679L17.0609 6.67278C15.7875 5.51278 14.1303 4.80078 12.1467 4.80078C9.27316 4.80078 6.79194 6.41675 5.58379 8.76873L7.95929 10.5768C8.55526 8.84076 10.2038 7.58476 12.1467 7.58476Z" fill="#EB4335"/>
</svg>