<svg width="41" height="40" viewBox="0 0 41 40" fill="none" xmlns="http://www.w3.org/2000/svg">
<path d="M20.5578 9.65259C14.3354 9.65259 9.31732 13.667 9.31732 18.5406C9.31732 21.704 11.4048 24.4739 14.5361 26.0556L13.4763 30.0139C13.4563 30.0733 13.4532 30.1369 13.4674 30.1979C13.4816 30.2589 13.5125 30.3147 13.5566 30.3591C13.6209 30.4158 13.7037 30.4472 13.7894 30.4474C13.8605 30.4417 13.928 30.4136 13.9821 30.3672L18.5426 27.2921C19.2157 27.385 19.8943 27.4333 20.5739 27.4366C26.7883 27.4366 31.8144 23.4222 31.8144 18.5406C31.8144 13.659 26.7722 9.65259 20.5578 9.65259Z" fill="#521010"/>
<path d="M13.2512 17.1355H12.0227C11.8705 17.1399 11.7201 17.1009 11.5892 17.0231C11.5311 16.9866 11.4811 16.9386 11.4424 16.8819C11.4037 16.8253 11.3771 16.7612 11.3644 16.6938C11.3605 16.6511 11.3605 16.6082 11.3644 16.5655C11.3606 16.4855 11.3761 16.4058 11.4096 16.3331C11.4432 16.2604 11.4937 16.1969 11.5571 16.1479C11.697 16.0466 11.866 15.993 12.0388 15.9953H15.7401C15.8936 15.9899 16.045 16.032 16.1737 16.1158C16.2332 16.1506 16.2842 16.1982 16.3231 16.2552C16.362 16.3121 16.3877 16.3769 16.3985 16.445C16.4024 16.485 16.4024 16.5254 16.3985 16.5655C16.4023 16.6466 16.3868 16.7274 16.3533 16.8014C16.3198 16.8753 16.2693 16.9403 16.2058 16.9909C16.0693 17.0922 15.9019 17.1433 15.7321 17.1355H14.5438V21.3587C14.5487 21.4487 14.5347 21.5386 14.5029 21.6229C14.4712 21.7072 14.4222 21.7841 14.3592 21.8485C14.2987 21.91 14.2261 21.9583 14.1459 21.9901C14.0657 22.0219 13.9797 22.0365 13.8935 22.0331C13.7427 22.0374 13.5951 21.9892 13.476 21.8967C13.3626 21.8063 13.2856 21.6779 13.2592 21.5353C13.2513 21.4767 13.2513 21.4173 13.2592 21.3587L13.2512 17.1355Z" fill="#FEE500"/>
<path d="M16.7529 16.3085C16.7882 16.1763 16.8711 16.0619 16.9857 15.9873C17.1078 15.9181 17.247 15.8847 17.3872 15.8909H17.6923C17.841 15.8856 17.9884 15.9217 18.1178 15.9953C18.2549 16.0875 18.3524 16.228 18.3908 16.3887L19.9966 20.9251C20.0382 21.0434 20.073 21.1641 20.1009 21.2865C20.1037 21.3373 20.1037 21.3881 20.1009 21.439C20.1037 21.5172 20.0893 21.5951 20.0587 21.6672C20.0282 21.7393 19.9824 21.8039 19.9243 21.8565C19.8681 21.9141 19.8005 21.9596 19.7259 21.99C19.6513 22.0204 19.5713 22.035 19.4907 22.0331C19.3669 22.0454 19.2425 22.0157 19.1377 21.9487C19.0328 21.8817 18.9535 21.7813 18.9127 21.6638L18.5754 20.6762H16.4638L16.1266 21.6638C16.0867 21.7837 16.0065 21.886 15.8996 21.9533C15.7928 22.0207 15.6658 22.0488 15.5405 22.0331C15.4047 22.0366 15.2718 21.9942 15.1632 21.9126C15.0573 21.8285 14.9859 21.7086 14.9624 21.5755C14.9582 21.5301 14.9582 21.4844 14.9624 21.439C14.9486 21.3593 14.9486 21.2778 14.9624 21.1981C14.9624 21.1098 15.0186 21.0134 15.0507 20.9251L16.7529 16.3085ZM17.5558 17.3603L16.793 19.769H18.3105L17.5558 17.3603Z" fill="#FEE500"/>
<path d="M20.2848 16.5656C20.2767 16.3854 20.3402 16.2093 20.4614 16.0758C20.5231 16.0136 20.5971 15.965 20.6787 15.9332C20.7603 15.9014 20.8477 15.887 20.9352 15.891C21.0856 15.8893 21.2323 15.9373 21.3527 16.0276C21.4642 16.1218 21.5382 16.2528 21.5614 16.3969C21.5693 16.4528 21.5693 16.5096 21.5614 16.5656V20.7888H23.7694C23.9224 20.7868 24.0728 20.8285 24.2029 20.9091C24.2614 20.9452 24.3116 20.9932 24.3503 21.0499C24.3891 21.1066 24.4154 21.1708 24.4277 21.2383C24.4277 21.2383 24.4277 21.3187 24.4277 21.3588C24.4316 21.4388 24.416 21.5184 24.3825 21.5911C24.3489 21.6638 24.2984 21.7273 24.235 21.7763C24.0951 21.8777 23.9261 21.9311 23.7533 21.9288H21.0395C20.8667 21.9399 20.6949 21.895 20.5498 21.8004C20.42 21.7034 20.3335 21.5592 20.3089 21.399C20.303 21.3108 20.303 21.2222 20.3089 21.134L20.2848 16.5656Z" fill="#FEE500"/>
<path d="M24.5724 16.5656C24.5676 16.3859 24.6307 16.2111 24.7491 16.0758C24.8694 15.9665 25.0238 15.9019 25.1861 15.8931C25.3485 15.8844 25.5089 15.9319 25.6403 16.0276C25.7542 16.121 25.8311 16.2519 25.8571 16.3969C25.861 16.453 25.861 16.5095 25.8571 16.5656V18.5326L27.8884 16.1882C27.9666 16.1082 28.0498 16.0332 28.1373 15.9634C28.2197 15.9143 28.3143 15.8892 28.4103 15.8911C28.5506 15.8903 28.6878 15.9324 28.8037 16.0115C28.8583 16.0483 28.9049 16.0957 28.9408 16.1509C28.9766 16.2061 29.001 16.2679 29.0124 16.3327C29.0157 16.3486 29.0157 16.365 29.0124 16.3809C29.0085 16.3995 29.0085 16.4186 29.0124 16.4371C29.0122 16.5216 28.99 16.6046 28.9482 16.678C28.9056 16.7557 28.8544 16.8284 28.7957 16.8947L27.4628 18.356L29.0686 20.845V20.9252C29.152 21.0403 29.217 21.1677 29.2613 21.3027V21.3428C29.2706 21.4358 29.2572 21.5297 29.2222 21.6164C29.1873 21.7031 29.1318 21.78 29.0606 21.8406C28.9267 21.9418 28.7628 21.9955 28.5949 21.9932C28.4834 21.9977 28.3726 21.9728 28.2738 21.9208C28.1668 21.8491 28.0787 21.7527 28.0168 21.6398L26.5235 19.2312L25.8089 19.9779V21.3187C25.8137 21.4983 25.7506 21.6732 25.6323 21.8084C25.5688 21.8704 25.4933 21.9189 25.4105 21.9506C25.3276 21.9824 25.2392 21.9969 25.1505 21.9932C25.0024 21.9963 24.8577 21.948 24.741 21.8566C24.6276 21.7662 24.5507 21.638 24.5243 21.4954C24.5163 21.4368 24.5163 21.3773 24.5243 21.3187L24.5724 16.5656Z" fill="#FEE500"/>
</svg>
