<svg xmlns="http://www.w3.org/2000/svg" width="40" height="40" viewBox="0 0 24 24" fill="none">
  <path d="M12.0347 5.79153C8.30125 5.79153 5.29041 8.20019 5.29041 11.1243C5.29041 13.0224 6.54292 14.6843 8.42169 15.6334L7.7858 18.0083C7.77381 18.0439 7.77196 18.0821 7.78047 18.1187C7.78898 18.1553 7.8075 18.1888 7.83397 18.2155C7.87256 18.2495 7.92222 18.2683 7.97367 18.2684C8.01634 18.265 8.05681 18.2482 8.08929 18.2203L10.8255 16.3753C11.2295 16.431 11.6366 16.4599 12.0443 16.4619C15.773 16.4619 18.7886 14.0533 18.7886 11.1243C18.7886 8.19537 15.7633 5.79153 12.0347 5.79153Z" fill="#521010"/>
  <path d="M7.65069 10.2813H6.91364C6.82229 10.2839 6.73206 10.2605 6.6535 10.2138C6.61862 10.192 6.58864 10.1631 6.56543 10.1292C6.54221 10.0952 6.52628 10.0567 6.51862 10.0163C6.51628 9.99067 6.51628 9.96491 6.51862 9.93927C6.51633 9.8913 6.52564 9.84345 6.54577 9.79984C6.56589 9.75624 6.59624 9.71814 6.63423 9.68876C6.71822 9.62794 6.81959 9.59581 6.92327 9.5972H9.14407C9.23615 9.59396 9.32699 9.61921 9.40421 9.66947C9.43991 9.69036 9.47053 9.71894 9.49386 9.75309C9.51718 9.78725 9.53263 9.82615 9.5391 9.867C9.54145 9.89103 9.54145 9.91524 9.5391 9.93927C9.54137 9.98794 9.53208 10.0364 9.51198 10.0808C9.49188 10.1252 9.46156 10.1642 9.42348 10.1945C9.34154 10.2553 9.24115 10.286 9.13926 10.2813H8.42629V12.8152C8.42919 12.8692 8.42083 12.9232 8.40176 12.9738C8.38268 13.0243 8.35331 13.0704 8.31549 13.1091C8.27923 13.146 8.23563 13.175 8.18751 13.194C8.13939 13.2131 8.08781 13.2219 8.03608 13.2199C7.94561 13.2224 7.85706 13.1935 7.78558 13.138C7.71753 13.0838 7.67135 13.0068 7.65551 12.9212C7.65075 12.886 7.65075 12.8504 7.65551 12.8152L7.65069 10.2813Z" fill="#FEE500"/>
  <path d="M9.75174 9.78508C9.77293 9.7058 9.82269 9.63716 9.89144 9.59237C9.9647 9.55085 10.0482 9.53081 10.1323 9.53456H10.3154C10.4046 9.53136 10.493 9.55305 10.5707 9.59719C10.653 9.65253 10.7114 9.73678 10.7345 9.83324L11.698 12.5551C11.7229 12.6261 11.7438 12.6985 11.7606 12.7719C11.7622 12.8024 11.7622 12.8329 11.7606 12.8634C11.7622 12.9103 11.7536 12.9571 11.7353 13.0003C11.717 13.0436 11.6894 13.0824 11.6546 13.1139C11.6208 13.1485 11.5803 13.1757 11.5356 13.194C11.4908 13.2122 11.4428 13.221 11.3945 13.2199C11.3202 13.2272 11.2455 13.2094 11.1826 13.1692C11.1197 13.129 11.0721 13.0688 11.0476 12.9983L10.8453 12.4057H9.57832L9.37599 12.9983C9.35206 13.0702 9.30393 13.1316 9.2398 13.172C9.17568 13.2124 9.09952 13.2293 9.02432 13.2199C8.94286 13.222 8.86307 13.1965 8.7979 13.1476C8.73442 13.0971 8.69158 13.0252 8.67747 12.9453C8.67491 12.9181 8.67491 12.8906 8.67747 12.8634C8.6692 12.8156 8.6692 12.7667 8.67747 12.7189C8.67747 12.6659 8.71119 12.608 8.73046 12.5551L9.75174 9.78508ZM10.2335 10.4162L9.77583 11.8614H10.6863L10.2335 10.4162Z" fill="#FEE500"/>
  <path d="M11.8709 9.93931C11.866 9.8312 11.9041 9.72556 11.9769 9.64546C12.0139 9.60815 12.0583 9.57898 12.1072 9.5599C12.1562 9.54081 12.2086 9.53218 12.2611 9.53461C12.3514 9.53356 12.4394 9.56237 12.5116 9.61653C12.5785 9.67304 12.623 9.75164 12.6369 9.83811C12.6416 9.87166 12.6416 9.90576 12.6369 9.93931V12.4732H13.9616C14.0535 12.472 14.1437 12.4971 14.2218 12.5455C14.2568 12.5671 14.287 12.5959 14.3102 12.6299C14.3335 12.6639 14.3493 12.7024 14.3567 12.743C14.3567 12.743 14.3567 12.7912 14.3567 12.8153C14.3589 12.8632 14.3496 12.911 14.3295 12.9546C14.3094 12.9982 14.279 13.0364 14.241 13.0658C14.1571 13.1266 14.0557 13.1587 13.952 13.1573H12.3237C12.22 13.1639 12.1169 13.137 12.0299 13.0802C11.952 13.022 11.9001 12.9355 11.8854 12.8394C11.8818 12.7864 11.8818 12.7333 11.8854 12.6804L11.8709 9.93931Z" fill="#FEE500"/>
  <path d="M14.4435 9.93934C14.4406 9.83154 14.4784 9.72662 14.5494 9.64548C14.6216 9.57988 14.7142 9.54114 14.8117 9.53587C14.9091 9.5306 15.0053 9.55911 15.0842 9.61655C15.1525 9.67256 15.1987 9.75113 15.2142 9.83813C15.2166 9.87181 15.2166 9.90566 15.2142 9.93934V11.1196L16.433 9.71288C16.48 9.66489 16.5299 9.61988 16.5824 9.57803C16.6318 9.54857 16.6886 9.53351 16.7461 9.53464C16.8303 9.53418 16.9127 9.55939 16.9822 9.60691C17.015 9.62896 17.0429 9.65742 17.0644 9.69053C17.086 9.72364 17.1006 9.76073 17.1075 9.79961C17.1094 9.80915 17.1094 9.81901 17.1075 9.82855C17.1051 9.83966 17.1051 9.85112 17.1075 9.86224C17.1073 9.91293 17.094 9.96274 17.0689 10.0068C17.0433 10.0534 17.0127 10.097 16.9774 10.1368L16.1777 11.0136L17.1412 12.507V12.5551C17.1912 12.6242 17.2302 12.7006 17.2568 12.7816V12.8056C17.2624 12.8615 17.2543 12.9178 17.2333 12.9698C17.2124 13.0218 17.1791 13.068 17.1364 13.1043C17.056 13.1651 16.9577 13.1973 16.857 13.1959C16.79 13.1986 16.7236 13.1836 16.6643 13.1525C16.6001 13.1094 16.5472 13.0516 16.5101 12.9839L15.6141 11.5387L15.1853 11.9867V12.7912C15.1882 12.899 15.1504 13.0039 15.0793 13.085C15.0413 13.1222 14.996 13.1513 14.9463 13.1704C14.8966 13.1894 14.8435 13.1981 14.7903 13.1959C14.7014 13.1977 14.6146 13.1688 14.5446 13.114C14.4766 13.0597 14.4304 12.9828 14.4146 12.8972C14.4098 12.862 14.4098 12.8263 14.4146 12.7912L14.4435 9.93934Z" fill="#FEE500"/>
</svg>