<svg width="168" height="60" viewBox="0 0 168 60" fill="none" xmlns="http://www.w3.org/2000/svg">
<g id="&#235;&#163;&#168;&#235;&#143;&#132;_&#235;&#161;&#156;&#234;&#179;&#160;_&#236;&#181;&#156;&#236;&#162;&#133; 1">
<g id="Group">
<path id="Vector" d="M116.298 0L113.898 23.9976L113.718 25.7854C111.378 24.6395 108.75 23.9976 105.954 23.9976C104.544 23.9976 103.17 24.1656 101.85 24.4716C98.904 25.1735 96.234 26.6073 94.05 28.5811C91.854 30.5729 90.15 33.1107 89.172 35.9964C88.734 37.2563 88.44 38.5941 88.302 39.974L88.248 40.484C88.248 40.484 88.242 40.5139 88.242 40.5319C87.99 43.1477 88.314 45.6794 89.118 47.9952C90.678 52.5667 94.074 56.3344 98.46 58.3562C100.716 59.4061 103.236 59.994 105.906 59.994H121.962L123.162 47.9952L123.558 44.0176L123.612 43.5076C123.612 43.5076 123.612 43.4776 123.618 43.4657L124.362 35.9964L127.962 0H116.298ZM112.056 42.4398C112.05 42.4757 112.05 42.5177 112.044 42.5597V42.6197C112.044 42.6197 112.032 42.6737 112.026 42.7037C111.684 45.7154 109.134 47.9952 106.098 47.9952C102.606 47.9952 99.87 45.0195 100.14 41.5518C100.146 41.5159 100.146 41.4739 100.152 41.4319V41.3719C100.152 41.3719 100.164 41.3179 100.17 41.2879C100.512 38.2762 103.062 35.9964 106.098 35.9964C109.428 35.9964 112.074 38.7081 112.074 41.9598C112.074 42.1158 112.068 42.2778 112.056 42.4398Z" fill="black" fill-opacity="0.45"/>
<path id="Vector_2" d="M81.762 41.9958L81.618 43.4657C81.618 43.4657 81.612 43.4957 81.612 43.5077L81.558 44.0176L81.162 47.9952L79.962 59.994H63.906C61.236 59.994 58.716 59.4061 56.46 58.3562C52.074 56.3344 48.678 52.5668 47.118 47.9952C46.464 46.1174 46.128 44.0896 46.164 41.9958H58.122C58.104 45.2715 60.756 47.9952 64.098 47.9952C67.134 47.9952 69.684 45.7155 70.026 42.7038C70.032 42.6738 70.038 42.6498 70.038 42.6198V42.5598C70.05 42.5178 70.05 42.4758 70.056 42.4398L70.098 41.9958H81.762Z" fill="black" fill-opacity="0.45"/>
<path id="Vector_3" d="M59.898 23.9976L59.85 24.4715L58.698 35.9964H46.698L47.898 23.9976H59.898Z" fill="black" fill-opacity="0.45"/>
<path id="Vector_4" d="M83.562 23.9976L82.362 35.9964H70.698L71.718 25.7854L71.898 23.9976H83.562Z" fill="black" fill-opacity="0.45"/>
<path id="Vector_5" d="M39.162 47.9952L37.962 59.994H2.298L8.298 0H20.298L15.498 47.9952H39.162Z" fill="black" fill-opacity="0.45"/>
<path id="Vector_6" d="M130.302 39.974L130.248 40.4899C129.204 50.9349 137.406 60 147.906 60C157.02 60 164.652 53.0946 165.564 44.0236L165.618 43.5076C166.662 33.0626 158.46 23.9976 147.96 23.9976C138.846 23.9976 131.214 30.9029 130.302 39.974ZM148.098 47.9952C144.564 47.9952 141.804 44.9475 142.158 41.4318V41.3718C142.47 38.3181 145.038 35.9964 148.104 35.9964C151.638 35.9964 154.398 39.0441 154.044 42.5597V42.6197C153.732 45.6734 151.164 47.9952 148.098 47.9952Z" fill="black" fill-opacity="0.45"/>
</g>
</g>
</svg>
