<svg xmlns="http://www.w3.org/2000/svg" width="24" height="24" viewBox="0 0 24 24" fill="none">
  <path d="M15 17.7C18.3137 17.7 21 15.0137 21 11.7C21 8.3863 18.3137 5.70001 15 5.70001C11.6863 5.70001 9 8.3863 9 11.7C9 15.0137 11.6863 17.7 15 17.7Z" fill="url(#paint0_linear_1677_545)"/>
  <path d="M16.3101 12.498C16.1019 12.3843 15.8463 12.4074 15.6585 12.5523C14.6451 13.3344 13.3761 13.8003 12 13.8003C10.6239 13.8003 9.3546 13.3344 8.3415 12.5523C8.1537 12.4074 7.8981 12.3843 7.6899 12.498C4.8957 14.0253 3 16.9914 3 20.4C3 20.7315 3.2685 21 3.6 21H20.4C20.7315 21 21 20.7315 21 20.4C21 16.9911 19.1046 14.0253 16.3101 12.498Z" fill="black"/>
  <path d="M12 12.6C14.651 12.6 16.8 10.451 16.8 7.8C16.8 5.14903 14.651 3 12 3C9.34903 3 7.2 5.14903 7.2 7.8C7.2 10.451 9.34903 12.6 12 12.6Z" fill="black"/>
  <defs>
    <linearGradient id="paint0_linear_1677_545" x1="8.7036" y1="12.0288" x2="21.2964" y2="11.3709" gradientUnits="userSpaceOnUse">
      <stop stop-color="#6262B2"/>
      <stop offset="1" stop-color="#F7A477" stop-opacity="0.5"/>
    </linearGradient>
  </defs>
</svg>