<svg xmlns="http://www.w3.org/2000/svg" width="24" height="24" viewBox="0 0 24 24" fill="none">
  <path d="M12 4.8C12.4971 4.8 12.9 4.39706 12.9 3.9C12.9 3.40294 12.4971 3 12 3C11.5029 3 11.1 3.40294 11.1 3.9C11.1 4.39706 11.5029 4.8 12 4.8Z" fill="black"/>
  <path d="M12 12.9C12.4971 12.9 12.9 12.4971 12.9 12C12.9 11.5029 12.4971 11.1 12 11.1C11.5029 11.1 11.1 11.5029 11.1 12C11.1 12.4971 11.5029 12.9 12 12.9Z" fill="black"/>
  <path d="M12 21C12.4971 21 12.9 20.5971 12.9 20.1C12.9 19.603 12.4971 19.2 12 19.2C11.5029 19.2 11.1 19.603 11.1 20.1C11.1 20.5971 11.5029 21 12 21Z" fill="black"/>
</svg>