<svg width="72" height="72" viewBox="0 0 72 72" fill="none" xmlns="http://www.w3.org/2000/svg">
<path d="M0 36C0 16.1178 16.1178 0 36 0C55.8823 0 72 16.1178 72 36C72 55.8823 55.8823 72 36 72C16.1178 72 0 55.8823 0 36Z" fill="black" fill-opacity="0.65"/>
<path d="M30.5604 24C30.7652 24 30.97 24.078 31.126 24.2344L41.78 34.8883C42.3932 35.5015 42.3932 36.499 41.78 37.1118L31.126 47.7657C30.8136 48.0781 30.3072 48.0781 29.9948 47.7657C29.6824 47.4533 29.6824 46.9469 29.9948 46.6345L40.6292 36.0003L29.9948 25.3656C29.6824 25.0532 29.6824 24.5468 29.9948 24.2344C30.1508 24.078 30.3556 24 30.5604 24Z" fill="white"/>
</svg>
