<svg xmlns="http://www.w3.org/2000/svg" width="40" height="40" viewBox="0 0 40 40" fill="none">
  <path d="M25 29.5C30.5228 29.5 35 25.0228 35 19.5C35 13.9772 30.5228 9.5 25 9.5C19.4772 9.5 15 13.9772 15 19.5C15 25.0228 19.4772 29.5 25 29.5Z" fill="url(#paint0_linear_1656_878)"/>
  <path d="M20 35C18.8955 35 18 34.1045 18 33V11.8285L12.914 16.9145C12.133 17.6955 10.8665 17.6955 10.0855 16.9145C9.30451 16.1335 9.30451 14.867 10.0855 14.086L18.5855 5.586C19.1575 5.014 20.0175 4.843 20.765 5.1525C21.5125 5.462 21.9995 6.1915 21.9995 7.0005V33.0005C21.9995 34.105 21.104 35.0005 19.9995 35.0005L20 35Z" fill="black"/>
  <path d="M31 35H9C7.8955 35 7 34.1045 7 33C7 31.8955 7.8955 31 9 31H31C32.1045 31 33 31.8955 33 33C33 34.1045 32.1045 35 31 35Z" fill="black"/>
  <defs>
    <linearGradient id="paint0_linear_1656_878" x1="14.506" y1="20.048" x2="35.494" y2="18.9515" gradientUnits="userSpaceOnUse">
      <stop stop-color="#6262B2"/>
      <stop offset="1" stop-color="#F7A477" stop-opacity="0.5"/>
    </linearGradient>
  </defs>
</svg>