<svg xmlns="http://www.w3.org/2000/svg" width="24" height="24" viewBox="0 0 24 24" fill="none">
  <path d="M15 17.7C18.3137 17.7 21 15.0137 21 11.7C21 8.38627 18.3137 5.69998 15 5.69998C11.6863 5.69998 9 8.38627 9 11.7C9 15.0137 11.6863 17.7 15 17.7Z" fill="url(#paint0_linear_1677_524)"/>
  <path d="M12 21C11.3373 21 10.8 20.4627 10.8 19.8V7.09709L7.74839 10.1487C7.27979 10.6173 6.51989 10.6173 6.05129 10.1487C5.58269 9.68009 5.58269 8.92019 6.05129 8.45159L11.1513 3.35159C11.4945 3.00839 12.0105 2.90579 12.459 3.09149C12.9075 3.27719 13.1997 3.71489 13.1997 4.20029V19.8003C13.1997 20.463 12.6624 21.0003 11.9997 21.0003L12 21Z" fill="black"/>
  <path d="M18.6 21H5.4C4.7373 21 4.2 20.4627 4.2 19.8C4.2 19.1373 4.7373 18.6 5.4 18.6H18.6C19.2627 18.6 19.8 19.1373 19.8 19.8C19.8 20.4627 19.2627 21 18.6 21Z" fill="black"/>
  <defs>
    <linearGradient id="paint0_linear_1677_524" x1="8.7036" y1="12.0288" x2="21.2964" y2="11.3709" gradientUnits="userSpaceOnUse">
      <stop stop-color="#6262B2"/>
      <stop offset="1" stop-color="#F7A477" stop-opacity="0.5"/>
    </linearGradient>
  </defs>
</svg>