<svg width="72" height="72" viewBox="0 0 72 72" fill="none" xmlns="http://www.w3.org/2000/svg">
<path d="M0 36C0 16.1178 16.1178 0 36 0C55.8823 0 72 16.1178 72 36C72 55.8823 55.8823 72 36 72C16.1178 72 0 55.8823 0 36Z" fill="black" fill-opacity="0.65"/>
<path d="M41.4396 48C41.2348 48 41.03 47.922 40.874 47.7656L30.22 37.112C29.6068 36.4988 29.6068 35.5012 30.22 34.8884L40.874 24.2344C41.1864 23.922 41.6928 23.922 42.0052 24.2344C42.3176 24.5468 42.3176 25.0532 42.0052 25.3656L31.3712 36L42.0056 46.6344C42.318 46.9468 42.318 47.4532 42.0056 47.7656C41.8492 47.922 41.6448 48 41.44 48H41.4396Z" fill="white"/>
</svg>
