<svg width="24" height="24" viewBox="0 0 24 24" fill="none" xmlns="http://www.w3.org/2000/svg">
<path d="M22.8413 12L22.7513 12.94C22.7513 12.94 22.7513 12.96 22.7513 12.97L22.7213 13.3L22.4713 15.85L21.7013 23.55H11.4013C9.6913 23.55 8.0713 23.17 6.6213 22.5C3.8113 21.2 1.6313 18.78 0.631304 15.85C0.191304 14.65 -0.0186957 13.34 0.00130435 12H7.6713C7.6613 14.1 9.3613 15.85 11.5013 15.85C13.4513 15.85 15.0813 14.39 15.3013 12.45C15.3013 12.43 15.3013 12.42 15.3013 12.4V12.36C15.3013 12.36 15.3013 12.31 15.3113 12.28L15.3413 12H22.8213H22.8413Z" fill="black"/>
<path d="M8.81131 0.449951L8.78131 0.749951L8.04131 8.14995H0.341309L1.11131 0.449951H8.81131Z" fill="#9F99E5"/>
<path d="M24.0013 0.449951L23.2313 8.14995H15.7513L16.4013 1.59995L16.5213 0.449951H24.0013Z" fill="#F7A477"/>
</svg>
