<svg xmlns="http://www.w3.org/2000/svg" width="24" height="24" viewBox="0 0 24 24" fill="none">
  <path d="M9.68281 16.3656C7.89781 16.3656 6.2196 15.6705 4.95751 14.4084C3.69541 13.1463 3.00031 11.4681 3.00031 9.68311C3.00031 7.89811 3.69541 6.21991 4.95751 4.95781C6.2196 3.69571 7.89781 3.00061 9.68281 3.00061C11.4678 3.00061 13.146 3.69571 14.4081 4.95781C15.6702 6.21991 16.3653 7.89811 16.3653 9.68311C16.3653 11.4681 15.6702 13.1463 14.4081 14.4084C13.146 15.6705 11.4678 16.3656 9.68281 16.3656ZM9.68281 4.20001C6.65971 4.20001 4.20001 6.65971 4.20001 9.68281C4.20001 12.7059 6.65971 15.1656 9.68281 15.1656C12.7059 15.1656 15.1656 12.7062 15.1656 9.68281C15.1656 6.65941 12.7062 4.20001 9.68281 4.20001Z" fill="black"/>
  <path d="M9.68281 16.3656C7.89781 16.3656 6.2196 15.6705 4.95751 14.4084C3.69541 13.1463 3.00031 11.4681 3.00031 9.68311C3.00031 7.89811 3.69541 6.21991 4.95751 4.95781C6.2196 3.69571 7.89781 3.00061 9.68281 3.00061C11.4678 3.00061 13.146 3.69571 14.4081 4.95781C15.6702 6.21991 16.3653 7.89811 16.3653 9.68311C16.3653 11.4681 15.6702 13.1463 14.4081 14.4084C13.146 15.6705 11.4678 16.3656 9.68281 16.3656ZM9.68281 4.20001C6.65971 4.20001 4.20001 6.65971 4.20001 9.68281C4.20001 12.7059 6.65971 15.1656 9.68281 15.1656C12.7059 15.1656 15.1656 12.7062 15.1656 9.68281C15.1656 6.65941 12.7062 4.20001 9.68281 4.20001Z" fill="black"/>
  <path d="M14.307 13.4585L13.4584 14.307L15.0515 15.9001L15.9001 15.0516L14.307 13.4585Z" fill="black"/>
  <path d="M19.0965 21C18.8427 21 18.6045 20.9013 18.4251 20.7219L15.6309 17.9277L16.4793 17.0793L19.0965 19.6965L19.3965 19.3965L20.2449 20.2449L19.7679 20.7219C19.5885 20.9013 19.35 21 19.0965 21Z" fill="black"/>
  <path d="M20.2449 20.2449L19.3965 19.3965L19.6767 19.1163C19.2774 18.6825 18.348 17.7483 17.5272 16.9275L17.0502 16.4505L17.8986 15.6021L18.3756 16.0791C19.5249 17.2284 20.1864 17.9016 20.5203 18.2619C20.8356 18.6021 21 18.7938 21 19.0968C21 19.3506 20.9013 19.5888 20.7219 19.7682L20.2449 20.2452V20.2449Z" fill="black"/>
  <path d="M15.7656 18.4428C15.4506 18.4428 15.1545 18.3201 14.9316 18.0975L14.4723 17.6382L15.3207 16.7898L15.7653 17.2344L16.4997 16.5L17.3481 17.3484L16.599 18.0975C16.3764 18.3201 16.08 18.4428 15.765 18.4428H15.7656Z" fill="black"/>
  <path d="M17.3484 17.3484L16.5 16.5L17.2344 15.7656L16.7898 15.321L17.6382 14.4726L18.0975 14.9319C18.3201 15.1545 18.4428 15.4509 18.4428 15.7659C18.4428 16.0809 18.3201 16.377 18.0975 16.5999L17.3484 17.349V17.3484Z" fill="black"/>
  <path d="M15.3208 16.7894L14.4722 17.6379L14.9315 18.0972L15.78 17.2487L15.3208 16.7894Z" fill="black"/>
  <path d="M17.3484 17.3484L16.5 16.5L17.2344 15.7656L16.7898 15.321L17.6382 14.4726L18.0975 14.9319C18.3201 15.1545 18.4428 15.4509 18.4428 15.7659C18.4428 16.0809 18.3201 16.377 18.0975 16.5999L17.3484 17.349V17.3484Z" fill="black"/>
  <path d="M15.9498 15.9498L15.1014 15.1014L15.8505 14.3523C16.3104 13.8924 17.0586 13.8924 17.5182 14.3523L17.9775 14.8116L17.1291 15.66L16.6845 15.2154L15.9501 15.9498H15.9498Z" fill="black"/>
  <path d="M14.8116 17.9775L14.3523 17.5182C13.8924 17.0583 13.8924 16.3101 14.3523 15.8505L15.1014 15.1014L15.9498 15.9498L15.2154 16.6842L15.66 17.1288L14.8116 17.9772V17.9775Z" fill="black"/>
  <path d="M14.8116 17.9775L14.3523 17.5182C13.8924 17.0583 13.8924 16.3101 14.3523 15.8505L15.1014 15.1014L15.9498 15.9498L15.2154 16.6842L15.66 17.1288L14.8116 17.9772V17.9775Z" fill="black"/>
</svg>