<svg width="40" height="40" viewBox="0 0 40 40" fill="none" xmlns="http://www.w3.org/2000/svg">
<path d="M22.1864 31.7876C21.9048 31.7876 21.6384 31.6384 21.4936 31.3876L20.4564 29.5908C20.1524 29.6048 19.8476 29.6048 19.5436 29.59L18.5072 31.3848C18.3356 31.6816 17.9944 31.8364 17.658 31.7692C15.0748 31.2548 12.7016 29.8852 10.976 27.9132C10.7504 27.6556 10.714 27.2828 10.8852 26.9864L11.9228 25.1896C11.8408 25.062 11.7616 24.932 11.6856 24.8C11.6096 24.6684 11.5364 24.5348 11.4668 24.4H9.392C9.0496 24.4 8.7452 24.1824 8.6348 23.858C7.7896 21.3772 7.7904 18.6376 8.6364 16.1432C8.7464 15.8184 9.0512 15.6 9.394 15.6H11.4664C11.6056 15.3292 11.7576 15.0652 11.922 14.8092L10.8848 13.0124C10.7132 12.7156 10.75 12.3424 10.9764 12.0848C11.8396 11.1012 12.8568 10.2676 14 9.60761C15.1432 8.94761 16.3736 8.48361 17.6572 8.22801C17.9932 8.16081 18.3348 8.31561 18.5064 8.61241L19.5436 10.4092C19.8476 10.3952 20.1524 10.3952 20.4564 10.41L21.4928 8.61521C21.6644 8.31841 22.0056 8.16361 22.342 8.23081C24.9252 8.74521 27.2984 10.1148 29.024 12.0868C29.2496 12.3444 29.286 12.7172 29.1148 13.0136L28.0772 14.8104C28.1592 14.938 28.2384 15.068 28.3144 15.1996C28.3904 15.3312 28.4636 15.4648 28.5332 15.5996H30.608C30.9504 15.5996 31.2548 15.8172 31.3652 16.1416C32.2104 18.6224 32.2096 21.362 31.3636 23.8564C31.2536 24.1812 30.9488 24.3996 30.606 24.3996H28.5336C28.3944 24.6704 28.2424 24.9344 28.078 25.1904L29.1152 26.9872C29.2868 27.284 29.25 27.6572 29.0236 27.9148C28.1604 28.8984 27.1432 29.732 26 30.392C24.8568 31.052 23.6264 31.5164 22.3428 31.7716C22.2904 31.782 22.2384 31.7872 22.1864 31.7872V31.7876ZM20.8988 27.9564C21.1824 27.9564 21.4476 28.1072 21.5912 28.3564L22.5844 30.0768C23.4968 29.8424 24.3744 29.4836 25.2 29.0068C26.0256 28.53 26.7752 27.9496 27.4344 27.2768L26.4412 25.5564C26.2836 25.2836 26.3008 24.9436 26.4852 24.6884C26.8036 24.2472 27.0776 23.7712 27.3 23.274C27.4288 22.986 27.7148 22.8004 28.0304 22.8004H30.016C30.526 20.9712 30.5268 19.02 30.0184 17.2004H28.0308C27.7156 17.2004 27.4296 17.0152 27.3004 16.7276C27.1908 16.4828 27.0656 16.2384 26.9284 16.0004C26.7912 15.7624 26.642 15.532 26.4848 15.3148C26.3 15.0592 26.2824 14.7188 26.4404 14.446L27.4344 12.7248C26.1124 11.3748 24.4224 10.4 22.5836 9.92681L21.5908 11.646C21.4332 11.9192 21.1292 12.0744 20.8156 12.0416C20.2736 11.9852 19.7244 11.9848 19.1832 12.04C18.8696 12.072 18.5668 11.9168 18.4092 11.644L17.416 9.92361C16.5036 10.158 15.626 10.5168 14.8004 10.9936C13.9748 11.4704 13.2252 12.0508 12.566 12.7236L13.5592 14.444C13.7168 14.7168 13.6996 15.0568 13.5152 15.312C13.1968 15.7532 12.9228 16.2292 12.7004 16.7264C12.5716 17.0144 12.2856 17.2 11.97 17.2H9.9844C9.4744 19.0292 9.4736 20.9804 9.982 22.8H11.9696C12.2848 22.8 12.5708 22.9852 12.7 23.2728C12.8096 23.5176 12.9348 23.762 13.072 24C13.2092 24.2376 13.3584 24.4684 13.5156 24.6856C13.7004 24.9412 13.718 25.2816 13.56 25.5544L12.566 27.2756C13.888 28.6256 15.578 29.6004 17.4168 30.0736L18.4096 28.3544C18.5672 28.0812 18.8708 27.926 19.1848 27.9588C19.7268 28.0152 20.276 28.0156 20.8172 27.9604C20.8444 27.9576 20.8716 27.9564 20.8984 27.9564H20.8988ZM20.0008 24.4008C19.9756 24.4008 19.9512 24.4008 19.9276 24.4H19.92C19.9152 24.4 19.91 24.4 19.9052 24.4C19.1636 24.3836 18.432 24.178 17.7904 23.806C17.128 23.422 16.5744 22.8668 16.19 22.2004C15.8052 21.534 15.6012 20.7772 15.6 20.0116C15.5988 19.2696 15.7864 18.5336 16.1432 17.8832C16.1452 17.8792 16.1476 17.8752 16.1496 17.8716L16.154 17.864C16.1772 17.8212 16.2032 17.7764 16.2332 17.7272C16.6132 17.0952 17.1556 16.5624 17.8008 16.19C18.446 15.8176 19.1788 15.6136 19.9196 15.6008C19.9732 15.5996 20.0248 15.5996 20.0732 15.6008H20.0808C20.0856 15.6008 20.0908 15.6008 20.0956 15.6008C20.8372 15.6172 21.5688 15.8228 22.2104 16.1948C22.8728 16.5788 23.4264 17.134 23.8108 17.8004C24.1956 18.4668 24.3996 19.2236 24.4008 19.9892C24.402 20.7312 24.2144 21.4672 23.8576 22.1176C23.8556 22.1216 23.8532 22.1256 23.8512 22.1292L23.8468 22.1368C23.8236 22.1796 23.7976 22.2244 23.7676 22.2736C23.3876 22.9056 22.8452 23.4384 22.2 23.8108C21.5548 24.1832 20.822 24.3872 20.0812 24.4C20.0536 24.4008 20.0268 24.4008 20.0008 24.4008ZM19.9336 22.7996H19.9424C19.9492 22.7996 19.9556 22.7996 19.9624 22.7996C19.9868 22.8004 20.0156 22.8004 20.0504 22.7996C20.524 22.7912 20.9896 22.6616 21.4004 22.4244C21.8112 22.1872 22.1564 21.8488 22.3984 21.4456C22.4184 21.4128 22.4328 21.388 22.4444 21.3664C22.4472 21.3612 22.45 21.356 22.4532 21.3508L22.458 21.3424C22.9296 20.4772 22.9176 19.4524 22.4252 18.5996C21.9328 17.7472 21.0516 17.224 20.0668 17.2H20.058C20.0512 17.2 20.0448 17.2 20.038 17.2C20.0132 17.1992 19.9848 17.1992 19.9504 17.2C19.4764 17.2084 19.0108 17.338 18.6 17.5752C18.1892 17.8124 17.844 18.1508 17.602 18.554C17.582 18.5868 17.5676 18.6116 17.556 18.6332C17.5532 18.6384 17.5504 18.6436 17.5472 18.6488L17.5424 18.6572C17.0708 19.5224 17.0828 20.5472 17.5752 21.4C18.0676 22.2524 18.9488 22.7756 19.9336 22.7996Z" fill="black" fill-opacity="0.65"/>
</svg>
