<svg xmlns="http://www.w3.org/2000/svg" width="24" height="24" viewBox="0 0 24 24" fill="none">
  <path d="M24 0H0V24H24V0Z" fill="#BCC0C4"/>
  <path d="M14.6743 9.83999C14.6743 10.1052 14.4593 10.32 14.1943 10.32H12.96C12.6948 10.32 12.48 10.1052 12.48 9.83999C12.48 9.57479 12.6948 9.35999 12.96 9.35999H14.1943C14.4593 9.35999 14.6743 9.57479 14.6743 9.83999Z" fill="white"/>
  <path d="M14.983 11.28C14.983 11.5452 14.7679 11.76 14.503 11.76H12.96C12.6948 11.76 12.48 11.5452 12.48 11.28C12.48 11.0148 12.6948 10.8 12.96 10.8H14.503C14.7679 10.8 14.983 11.0148 14.983 11.28Z" fill="white"/>
  <path d="M15.6 8.40001C15.6 8.66521 15.3852 8.88001 15.12 8.88001H12.96C12.6948 8.88001 12.48 8.66521 12.48 8.40001C12.48 8.13481 12.6948 7.92001 12.96 7.92001H15.12C15.3852 7.92001 15.6 8.13481 15.6 8.40001Z" fill="white"/>
  <path d="M15.6 5.28H11.04V13.2C11.04 13.3613 10.9589 13.512 10.8242 13.6008C10.7446 13.6531 10.6526 13.68 10.56 13.68C10.4959 13.68 10.4316 13.6673 10.3709 13.6411L8.88 13.0022L7.38912 13.6411C7.20384 13.7206 6.984 13.6771 6.84264 13.5206C6.76128 13.4306 6.72 13.3114 6.72 13.1902V5.28H6.48C6.2148 5.28 6 5.4948 6 5.76V17.3623C6.15024 17.309 6.31176 17.28 6.48 17.28H15.6C15.8652 17.28 16.08 17.0652 16.08 16.8V5.76C16.08 5.4948 15.8652 5.28 15.6 5.28ZM14.503 11.76H12.9715C12.7111 11.76 12.4896 11.5574 12.4805 11.2973C12.4709 11.0242 12.6893 10.8 12.9602 10.8H14.4917C14.7521 10.8 14.9738 11.0026 14.983 11.2627C14.9926 11.5358 14.7739 11.76 14.5032 11.76H14.503ZM12.4802 9.82272C12.4894 9.56256 12.7111 9.36 12.9713 9.36H14.1941C14.459 9.36 14.6741 9.5748 14.6741 9.84C14.6741 10.1052 14.459 10.32 14.1941 10.32H12.9598C12.6888 10.32 12.4704 10.0958 12.48 9.82272H12.4802ZM15.12 8.88H12.9715C12.7111 8.88 12.4896 8.67744 12.4805 8.41728C12.4709 8.14416 12.6893 7.92 12.9602 7.92H15.1087C15.3691 7.92 15.5906 8.12256 15.5998 8.38272C15.6094 8.65584 15.391 8.88 15.12 8.88Z" fill="white"/>
  <path d="M18 7.68097V18.7191C18 18.9847 17.7847 19.2 17.519 19.2H6.49272C6.23232 19.2 6.0096 18.9979 6.00024 18.7375C5.9904 18.4649 6.20952 18.24 6.48 18.24H15.599C16.3949 18.24 17.04 17.5949 17.04 16.7991V7.20097C17.04 7.20097 17.0405 7.20001 17.041 7.20001H17.519C17.7847 7.20001 18 7.41529 18 7.68097Z" fill="white"/>
  <path d="M10.08 5.27999V12.4721L9.06911 12.0389C9.00863 12.0129 8.94431 12 8.87999 12C8.81567 12 8.75135 12.0129 8.69087 12.0389L7.67999 12.4721V5.27999C7.67999 5.01479 7.89479 4.79999 8.15999 4.79999H9.59999C9.86519 4.79999 10.08 5.01479 10.08 5.27999Z" fill="white"/>
  <path d="M15.12 8.40001C15.12 8.66521 14.9052 8.88001 14.64 8.88001H12.48C12.2148 8.88001 12 8.66521 12 8.40001C12 8.13481 12.2148 7.92001 12.48 7.92001H14.64C14.9052 7.92001 15.12 8.13481 15.12 8.40001Z" fill="#BCC0C4"/>
  <path d="M14.1943 9.83999C14.1943 10.1052 13.9793 10.32 13.7143 10.32H12.48C12.2148 10.32 12 10.1052 12 9.83999C12 9.57479 12.2148 9.35999 12.48 9.35999H13.7143C13.9793 9.35999 14.1943 9.57479 14.1943 9.83999Z" fill="#BCC0C4"/>
  <path d="M14.503 11.28C14.503 11.5452 14.2879 11.76 14.023 11.76H12.48C12.2148 11.76 12 11.5452 12 11.28C12 11.0148 12.2148 10.8 12.48 10.8H14.023C14.2879 10.8 14.503 11.0148 14.503 11.28Z" fill="#BCC0C4"/>
</svg>