<svg xmlns="http://www.w3.org/2000/svg" width="24" height="24" viewBox="0 0 24 24" fill="none">
  <path d="M15 17.7C18.3137 17.7 21 15.0137 21 11.7C21 8.3863 18.3137 5.70001 15 5.70001C11.6863 5.70001 9 8.3863 9 11.7C9 15.0137 11.6863 17.7 15 17.7Z" fill="url(#paint0_linear_1677_516)"/>
  <path d="M19.8 16.8H4.2C3.5382 16.8 3 16.2618 3 15.6V4.2C3 3.5382 3.5382 3 4.2 3H19.8C20.4618 3 21 3.5382 21 4.2V15.6C21 16.2618 20.4618 16.8 19.8 16.8ZM4.2 4.2V15.6H19.8H19.8009L19.8 4.2H4.2Z" fill="black"/>
  <path d="M20.4 13.8H3.60001V16.2H20.4V13.8Z" fill="black"/>
  <path d="M17.7 18H6.3C5.96863 18 5.7 18.2686 5.7 18.6V20.4C5.7 20.7314 5.96863 21 6.3 21H17.7C18.0314 21 18.3 20.7314 18.3 20.4V18.6C18.3 18.2686 18.0314 18 17.7 18Z" fill="black"/>
  <defs>
    <linearGradient id="paint0_linear_1677_516" x1="8.7036" y1="12.0288" x2="21.2964" y2="11.3709" gradientUnits="userSpaceOnUse">
      <stop stop-color="#6262B2"/>
      <stop offset="1" stop-color="#F7A477" stop-opacity="0.5"/>
    </linearGradient>
  </defs>
</svg>