<svg width="24" height="24" viewBox="0 0 24 24" fill="none" xmlns="http://www.w3.org/2000/svg">
<path d="M15 17.7C18.3137 17.7 21 15.0137 21 11.7C21 8.3863 18.3137 5.70001 15 5.70001C11.6863 5.70001 9 8.3863 9 11.7C9 15.0137 11.6863 17.7 15 17.7Z" fill="url(#paint0_linear_2203_2932)"/>
<path d="M15 6.89999H6.6C6.26863 6.89999 6 7.16862 6 7.49999C6 7.83136 6.26863 8.09999 6.6 8.09999H15C15.3314 8.09999 15.6 7.83136 15.6 7.49999C15.6 7.16862 15.3314 6.89999 15 6.89999Z" fill="black"/>
<path d="M15 9.89999H6.6C6.26863 9.89999 6 10.1686 6 10.5C6 10.8314 6.26863 11.1 6.6 11.1H15C15.3314 11.1 15.6 10.8314 15.6 10.5C15.6 10.1686 15.3314 9.89999 15 9.89999Z" fill="black"/>
<path d="M15 12.9H6.6C6.26863 12.9 6 13.1686 6 13.5C6 13.8314 6.26863 14.1 6.6 14.1H15C15.3314 14.1 15.6 13.8314 15.6 13.5C15.6 13.1686 15.3314 12.9 15 12.9Z" fill="black"/>
<path d="M12.6 15.9H6.6C6.26863 15.9 6 16.1686 6 16.5C6 16.8314 6.26863 17.1 6.6 17.1H12.6C12.9314 17.1 13.2 16.8314 13.2 16.5C13.2 16.1686 12.9314 15.9 12.6 15.9Z" fill="black"/>
<path d="M17.4 21H4.2C3.5382 21 3 20.4618 3 19.8V4.2C3 3.5382 3.5382 3 4.2 3H17.4C18.0618 3 18.6 3.5382 18.6 4.2V19.8C18.6 20.4618 18.0618 21 17.4 21ZM4.2 4.2V19.8H17.4H17.4009L17.4 4.2H4.2Z" fill="black"/>
<defs>
<linearGradient id="paint0_linear_2203_2932" x1="8.7036" y1="12.0288" x2="21.2964" y2="11.3709" gradientUnits="userSpaceOnUse">
<stop stop-color="#6262B2"/>
<stop offset="1" stop-color="#F7A477" stop-opacity="0.5"/>
</linearGradient>
</defs>
</svg>
