<svg xmlns="http://www.w3.org/2000/svg" width="24" height="24" viewBox="0 0 24 24" fill="none">
  <path d="M15 17.7C18.3137 17.7 21 15.0137 21 11.7C21 8.3863 18.3137 5.70001 15 5.70001C11.6863 5.70001 9 8.3863 9 11.7C9 15.0137 11.6863 17.7 15 17.7Z" fill="url(#paint0_linear_1677_535)"/>
  <path d="M12 21C10.2774 21 8.6487 20.433 7.4133 19.4037C6.7914 18.8853 6.3003 18.2766 5.9541 17.5947C5.5863 16.8699 5.3997 16.098 5.3997 15.3C5.3997 14.6373 5.937 14.1 6.5997 14.1C7.2624 14.1 7.7997 14.6373 7.7997 15.3C7.7997 16.1394 8.208 16.9422 8.9496 17.5602C9.7542 18.2307 10.8375 18.6 11.9997 18.6C13.1619 18.6 14.2452 18.2307 15.0498 17.5602C15.7914 16.9422 16.1997 16.1397 16.1997 15.3C16.1997 14.4603 15.7914 13.6578 15.0498 13.0398C14.2452 12.3693 13.1619 12 11.9997 12C11.337 12 10.7997 11.4627 10.7997 10.8C10.7997 10.1373 11.337 9.6 11.9997 9.6C13.626 9.6 14.9997 8.6382 14.9997 7.5C14.9997 6.3618 13.626 5.4 11.9997 5.4C10.3734 5.4 8.9997 6.3618 8.9997 7.5C8.9997 8.1627 8.4624 8.7 7.7997 8.7C7.137 8.7 6.5997 8.1627 6.5997 7.5C6.5997 6.2607 7.2153 5.0661 8.2884 4.2231C9.2922 3.4344 10.6101 3 11.9997 3C13.3893 3 14.7072 3.4344 15.711 4.2231C16.7841 5.0664 17.3997 6.2607 17.3997 7.5C17.3997 8.7393 16.8366 9.8295 15.8487 10.6647C16.1073 10.8249 16.3536 11.0025 16.5861 11.1963C17.208 11.7147 17.6991 12.3234 18.0453 13.0053C18.4131 13.7301 18.5997 14.502 18.5997 15.3C18.5997 16.098 18.4131 16.8702 18.0453 17.5947C17.6991 18.2769 17.2083 18.8856 16.5861 19.4037C15.351 20.433 13.722 21 11.9994 21H12Z" fill="black"/>
  <defs>
    <linearGradient id="paint0_linear_1677_535" x1="8.7036" y1="12.0288" x2="21.2964" y2="11.3709" gradientUnits="userSpaceOnUse">
      <stop stop-color="#6262B2"/>
      <stop offset="1" stop-color="#F7A477" stop-opacity="0.5"/>
    </linearGradient>
  </defs>
</svg>