<svg xmlns="http://www.w3.org/2000/svg" width="40" height="40" viewBox="0 0 40 40" fill="none">
  <path d="M25 29.5C30.5228 29.5 35 25.0228 35 19.5C35 13.9772 30.5228 9.5 25 9.5C19.4772 9.5 15 13.9772 15 19.5C15 25.0228 19.4772 29.5 25 29.5Z" fill="url(#paint0_linear_1656_993)"/>
  <path d="M20 35C17.129 35 14.4145 34.055 12.3555 32.3395C11.319 31.4755 10.5005 30.461 9.92351 29.3245C9.31051 28.1165 8.99951 26.83 8.99951 25.5C8.99951 24.3955 9.89501 23.5 10.9995 23.5C12.104 23.5 12.9995 24.3955 12.9995 25.5C12.9995 26.899 13.68 28.237 14.916 29.267C16.257 30.3845 18.0625 31 19.9995 31C21.9365 31 23.742 30.3845 25.083 29.267C26.319 28.237 26.9995 26.8995 26.9995 25.5C26.9995 24.1005 26.319 22.763 25.083 21.733C23.742 20.6155 21.9365 20 19.9995 20C18.895 20 17.9995 19.1045 17.9995 18C17.9995 16.8955 18.895 16 19.9995 16C22.71 16 24.9995 14.397 24.9995 12.5C24.9995 10.603 22.71 9 19.9995 9C17.289 9 14.9995 10.603 14.9995 12.5C14.9995 13.6045 14.104 14.5 12.9995 14.5C11.895 14.5 10.9995 13.6045 10.9995 12.5C10.9995 10.4345 12.0255 8.4435 13.814 7.0385C15.487 5.724 17.6835 5 19.9995 5C22.3155 5 24.512 5.724 26.185 7.0385C27.9735 8.444 28.9995 10.4345 28.9995 12.5C28.9995 14.5655 28.061 16.3825 26.4145 17.7745C26.8455 18.0415 27.256 18.3375 27.6435 18.6605C28.68 19.5245 29.4985 20.539 30.0755 21.6755C30.6885 22.8835 30.9995 24.17 30.9995 25.5C30.9995 26.83 30.6885 28.117 30.0755 29.3245C29.4985 30.4615 28.6805 31.476 27.6435 32.3395C25.585 34.055 22.87 35 19.999 35H20Z" fill="black"/>
  <defs>
    <linearGradient id="paint0_linear_1656_993" x1="14.506" y1="20.048" x2="35.494" y2="18.9515" gradientUnits="userSpaceOnUse">
      <stop stop-color="#6262B2"/>
      <stop offset="1" stop-color="#F7A477" stop-opacity="0.5"/>
    </linearGradient>
  </defs>
</svg>