<svg xmlns="http://www.w3.org/2000/svg" width="40" height="40" viewBox="0 0 40 40" fill="none">
  <path d="M25 29.5C30.5228 29.5 35 25.0228 35 19.5C35 13.9772 30.5228 9.5 25 9.5C19.4772 9.5 15 13.9772 15 19.5C15 25.0228 19.4772 29.5 25 29.5Z" fill="url(#paint0_linear_1656_726)"/>
  <path d="M31 35H9.00001C8.17151 35 7.42851 34.489 7.13251 33.715C6.83651 32.941 7.04751 32.065 7.66451 31.5115L24.302 16.5805C25.1515 15.818 25.6385 14.726 25.6375 13.584C25.6365 12.4465 25.173 11.406 24.3325 10.654C23.1405 9.5875 21.602 9 20.0005 9C16.4165 9 13.5005 11.916 13.5005 15.5C13.5005 16.6045 12.605 17.5 11.5005 17.5C10.396 17.5 9.50051 16.6045 9.50051 15.5C9.50051 9.7105 14.211 5 20.0005 5C22.5875 5 25.073 5.949 26.9995 7.673C28.674 9.1715 29.6355 11.3245 29.6375 13.581C29.639 15.8585 28.6685 18.037 26.9735 19.5575L14.2235 31H31.0005C32.105 31 33.0005 31.8955 33.0005 33C33.0005 34.1045 32.105 35 31.0005 35H31Z" fill="black"/>
  <defs>
    <linearGradient id="paint0_linear_1656_726" x1="14.506" y1="20.048" x2="35.494" y2="18.9515" gradientUnits="userSpaceOnUse">
      <stop stop-color="#6262B2"/>
      <stop offset="1" stop-color="#F7A477" stop-opacity="0.5"/>
    </linearGradient>
  </defs>
</svg>