<svg xmlns="http://www.w3.org/2000/svg" width="24" height="24" viewBox="0 0 24 24" fill="none">
  <path d="M15 17.7C18.3137 17.7 21 15.0137 21 11.7C21 8.3863 18.3137 5.70001 15 5.70001C11.6863 5.70001 9 8.3863 9 11.7C9 15.0137 11.6863 17.7 15 17.7Z" fill="url(#paint0_linear_1677_530)"/>
  <path d="M18.6 21H5.40001C4.90291 21 4.45711 20.6934 4.27951 20.229C4.10191 19.7646 4.22851 19.239 4.59871 18.9069L14.5812 9.9483C15.0909 9.4908 15.3831 8.8356 15.3825 8.1504C15.3819 7.4679 15.1038 6.8436 14.5995 6.3924C13.8843 5.7525 12.9612 5.4 12.0003 5.4C9.84991 5.4 8.10031 7.1496 8.10031 9.3C8.10031 9.9627 7.56301 10.5 6.90031 10.5C6.23761 10.5 5.70031 9.9627 5.70031 9.3C5.70031 5.8263 8.52661 3 12.0003 3C13.5525 3 15.0438 3.5694 16.1997 4.6038C17.2044 5.5029 17.7813 6.7947 17.7825 8.1486C17.7834 9.5151 17.2011 10.8222 16.1841 11.7345L8.53411 18.6H18.6003C19.263 18.6 19.8003 19.1373 19.8003 19.8C19.8003 20.4627 19.263 21 18.6003 21H18.6Z" fill="black"/>
  <defs>
    <linearGradient id="paint0_linear_1677_530" x1="8.7036" y1="12.0288" x2="21.2964" y2="11.3709" gradientUnits="userSpaceOnUse">
      <stop stop-color="#6262B2"/>
      <stop offset="1" stop-color="#F7A477" stop-opacity="0.5"/>
    </linearGradient>
  </defs>
</svg>