<svg xmlns="http://www.w3.org/2000/svg" width="32" height="32" viewBox="0 0 32 32" fill="none">
  <path d="M31.8459 10.151C31.8571 10.1328 31.8683 10.1142 31.8779 10.0955C31.8853 10.0811 31.8917 10.0667 31.8987 10.0523C31.9067 10.0358 31.9141 10.0192 31.9211 10.0022C31.9275 9.98615 31.9333 9.96962 31.9387 9.95362C31.9445 9.93709 31.9504 9.92109 31.9552 9.90402C31.9605 9.88642 31.9643 9.86882 31.9685 9.85122C31.9707 9.84109 31.9739 9.83149 31.976 9.82135C31.976 9.82082 31.976 9.81975 31.9765 9.81922C31.9776 9.81389 31.9787 9.80802 31.9792 9.80269C31.9824 9.78455 31.9851 9.76642 31.9877 9.74882C31.9893 9.73762 31.9915 9.72642 31.9931 9.71469C31.9936 9.70935 31.9941 9.70455 31.9941 9.69922C31.9957 9.68269 31.9963 9.66615 31.9968 9.64962C31.9973 9.63575 31.9984 9.62135 31.9984 9.60749C31.9984 9.60482 31.9984 9.60269 31.9984 9.60055C31.9984 9.59842 31.9984 9.59575 31.9984 9.59362C31.9984 9.57975 31.9973 9.56535 31.9968 9.55149C31.9963 9.53495 31.9957 9.51842 31.9941 9.50189C31.9941 9.49655 31.9936 9.49175 31.9931 9.48642C31.992 9.47522 31.9893 9.46402 31.9877 9.45229C31.9851 9.43415 31.9829 9.41602 31.9792 9.39842C31.9781 9.39309 31.9776 9.38722 31.9765 9.38189C31.9765 9.38135 31.9765 9.38029 31.976 9.37975C31.9739 9.36962 31.9707 9.36002 31.9685 9.34989C31.9643 9.33229 31.96 9.31469 31.9552 9.29709C31.9504 9.28055 31.9445 9.26402 31.9387 9.24749C31.9328 9.23149 31.9275 9.21495 31.9211 9.19895C31.9141 9.18189 31.9061 9.16535 31.8987 9.14882C31.8917 9.13442 31.8853 9.11949 31.8779 9.10562C31.8677 9.08695 31.8571 9.06829 31.8459 9.05015C31.8389 9.03895 31.8325 9.02722 31.8251 9.01602C31.8117 8.99575 31.7973 8.97655 31.7824 8.95682C31.7765 8.94935 31.7717 8.94135 31.7659 8.93442L31.7541 8.92002C31.7541 8.92002 31.7536 8.91895 31.7531 8.91895L27.4992 3.60162C27.1312 3.14135 26.4597 3.06722 26 3.43522C25.5397 3.80322 25.4656 4.47469 25.8336 4.93442L28.7141 8.53495H1.06667C0.477333 8.53335 0 9.01069 0 9.60002C0 10.1894 0.477333 10.6667 1.06667 10.6667H28.7141L25.8336 14.2672C25.4656 14.727 25.5403 15.3984 26 15.7664C26.1968 15.9238 26.432 16 26.6656 16C26.9787 16 27.2885 15.863 27.4992 15.5995L31.7531 10.2822C31.7531 10.2822 31.7536 10.2811 31.7541 10.2811L31.7659 10.2667C31.7717 10.2592 31.7765 10.2512 31.7824 10.2443C31.7973 10.2251 31.8117 10.2054 31.8251 10.1851C31.8325 10.1739 31.8389 10.1627 31.8459 10.151Z" fill="black" fill-opacity="0.45"/>
  <path d="M0.154133 21.849C0.142933 21.8672 0.131733 21.8858 0.122133 21.9045C0.114667 21.9189 0.108267 21.9333 0.101333 21.9477C0.0933333 21.9642 0.0858667 21.9808 0.0789333 21.9978C0.0725333 22.0138 0.0666667 22.0304 0.0613333 22.0464C0.0554667 22.0629 0.0496 22.0789 0.0448 22.096C0.0394667 22.1136 0.0357333 22.1312 0.0314667 22.1488C0.0293333 22.1589 0.0261333 22.1685 0.024 22.1786C0.024 22.1792 0.024 22.1802 0.0234667 22.1808C0.0224 22.1861 0.0213333 22.192 0.0208 22.1973C0.0176 22.2154 0.0149333 22.2336 0.0122667 22.2512C0.0106667 22.2624 0.00853333 22.2736 0.00693333 22.2853C0.0064 22.2906 0.00586667 22.2954 0.00586667 22.3008C0.00426667 22.3173 0.00373333 22.3338 0.0032 22.3504C0.00266667 22.3642 0.0016 22.3786 0.0016 22.3925C0 22.3952 0 22.3973 0 22.4C0 22.4026 0 22.4048 0 22.4069C0 22.4208 0.00106667 22.4352 0.0016 22.449C0.00213333 22.4656 0.00266667 22.4821 0.00426667 22.4986C0.00426667 22.504 0.0048 22.5088 0.00533333 22.5141C0.0064 22.5253 0.00906667 22.5365 0.0106667 22.5482C0.0133333 22.5664 0.0154667 22.5845 0.0192 22.6021C0.0202667 22.6074 0.0208 22.6133 0.0218667 22.6186C0.0218667 22.6192 0.0218667 22.6202 0.0224 22.6208C0.0245333 22.6309 0.0277333 22.6405 0.0298667 22.6506C0.0341333 22.6682 0.0384 22.6858 0.0432 22.7034C0.048 22.72 0.0538667 22.7365 0.0597333 22.753C0.0656 22.769 0.0709333 22.7856 0.0773333 22.8016C0.0842667 22.8186 0.0922667 22.8352 0.0997333 22.8517C0.106667 22.8661 0.113067 22.881 0.120533 22.8949C0.130667 22.9136 0.141333 22.9322 0.152533 22.9504C0.159467 22.9616 0.165867 22.9733 0.173333 22.9845C0.186667 23.0048 0.201067 23.024 0.216 23.0437C0.221867 23.0512 0.226667 23.0592 0.232533 23.0661L0.244267 23.0805C0.244267 23.0805 0.2448 23.0816 0.245333 23.0816L4.4992 28.3989C4.8672 28.8592 5.53867 28.9333 5.9984 28.5653C6.45867 28.1973 6.5328 27.5258 6.1648 27.0661L3.28427 23.4656H30.9317C31.5211 23.4656 31.9984 22.9882 31.9984 22.3989C31.9984 21.8096 31.5211 21.3322 30.9317 21.3322H3.28587L6.1664 17.7317C6.5344 17.272 6.45973 16.6005 6 16.2325C5.8032 16.0752 5.568 15.9989 5.3344 15.9989C5.02133 15.9989 4.71147 16.136 4.5008 16.3994L0.2464 21.7178C0.2464 21.7178 0.245867 21.7189 0.245333 21.7189L0.2336 21.7333C0.227733 21.7408 0.222933 21.7488 0.217067 21.7557C0.202133 21.7749 0.187733 21.7946 0.1744 21.8149C0.166933 21.8261 0.160533 21.8373 0.1536 21.849H0.154133Z" fill="black" fill-opacity="0.45"/>
</svg>