<svg xmlns="http://www.w3.org/2000/svg" width="16" height="16" viewBox="0 0 16 16" fill="none">
  <path d="M15.9229 5.07542C15.9285 5.06635 15.9341 5.05702 15.9389 5.04768C15.9427 5.04048 15.9459 5.03328 15.9493 5.02608C15.9533 5.01782 15.9571 5.00955 15.9605 5.00102C15.9637 4.99302 15.9667 4.98475 15.9693 4.97675C15.9723 4.96848 15.9752 4.96048 15.9776 4.95195C15.9803 4.94315 15.9821 4.93435 15.9843 4.92555C15.9853 4.92048 15.9869 4.91568 15.988 4.91062C15.988 4.91035 15.988 4.90982 15.9883 4.90955C15.9888 4.90688 15.9893 4.90395 15.9896 4.90128C15.9912 4.89222 15.9925 4.88315 15.9939 4.87435C15.9947 4.86875 15.9957 4.86315 15.9965 4.85728C15.9968 4.85462 15.9971 4.85222 15.9971 4.84955C15.9979 4.84128 15.9981 4.83302 15.9984 4.82475C15.9987 4.81782 15.9992 4.81062 15.9992 4.80368C15.9992 4.80235 15.9992 4.80128 15.9992 4.80022C15.9992 4.79915 15.9992 4.79782 15.9992 4.79675C15.9992 4.78982 15.9987 4.78262 15.9984 4.77568C15.9981 4.76742 15.9979 4.75915 15.9971 4.75088C15.9971 4.74822 15.9968 4.74582 15.9965 4.74315C15.996 4.73755 15.9947 4.73195 15.9939 4.72608C15.9925 4.71702 15.9915 4.70795 15.9896 4.69915C15.9891 4.69648 15.9888 4.69355 15.9883 4.69088C15.9883 4.69062 15.9883 4.69008 15.988 4.68982C15.9869 4.68475 15.9853 4.67995 15.9843 4.67488C15.9821 4.66608 15.98 4.65728 15.9776 4.64848C15.9752 4.64022 15.9723 4.63195 15.9693 4.62368C15.9664 4.61568 15.9637 4.60742 15.9605 4.59942C15.9571 4.59088 15.9531 4.58262 15.9493 4.57435C15.9459 4.56715 15.9427 4.55968 15.9389 4.55275C15.9339 4.54342 15.9285 4.53408 15.9229 4.52502C15.9195 4.51942 15.9163 4.51355 15.9125 4.50795C15.9059 4.49782 15.8987 4.48822 15.8912 4.47835C15.8883 4.47462 15.8859 4.47062 15.8829 4.46715L15.8771 4.45995C15.8771 4.45995 15.8768 4.45942 15.8765 4.45942L13.7496 1.80075C13.5656 1.57062 13.2299 1.53355 13 1.71755C12.7699 1.90155 12.7328 2.23728 12.9168 2.46715L14.3571 4.26742H0.533333C0.238667 4.26662 0 4.50528 0 4.79995C0 5.09462 0.238667 5.33328 0.533333 5.33328H14.3571L12.9168 7.13355C12.7328 7.36342 12.7701 7.69915 13 7.88315C13.0984 7.96182 13.216 7.99995 13.3328 7.99995C13.4893 7.99995 13.6443 7.93142 13.7496 7.79968L15.8765 5.14102C15.8765 5.14102 15.8768 5.14048 15.8771 5.14048L15.8829 5.13328C15.8859 5.12955 15.8883 5.12555 15.8912 5.12208C15.8987 5.11248 15.9059 5.10262 15.9125 5.09248C15.9163 5.08688 15.9195 5.08128 15.9229 5.07542Z" fill="black" fill-opacity="0.45"/>
  <path d="M0.0770667 10.9246C0.0714667 10.9336 0.0658667 10.943 0.0610667 10.9523C0.0573333 10.9595 0.0541333 10.9667 0.0506667 10.9739C0.0466667 10.9822 0.0429333 10.9904 0.0394667 10.999C0.0362667 11.007 0.0333333 11.0152 0.0306667 11.0232C0.0277333 11.0315 0.0248 11.0395 0.0224 11.048C0.0197333 11.0568 0.0178667 11.0656 0.0157333 11.0744C0.0146667 11.0795 0.0130667 11.0843 0.012 11.0894C0.012 11.0896 0.012 11.0902 0.0117333 11.0904C0.0112 11.0931 0.0106667 11.096 0.0104 11.0987C0.0088 11.1078 0.00746667 11.1168 0.00613333 11.1256C0.00533333 11.1312 0.00426667 11.1368 0.00346667 11.1427C0.0032 11.1454 0.00293333 11.1478 0.00293333 11.1504C0.00213333 11.1587 0.00186667 11.167 0.0016 11.1752C0.00133333 11.1822 0.0008 11.1894 0.0008 11.1963C0 11.1976 0 11.1987 0 11.2C0 11.2014 0 11.2024 0 11.2035C0 11.2104 0.000533333 11.2176 0.0008 11.2246C0.00106667 11.2328 0.00133333 11.2411 0.00213333 11.2494C0.00213333 11.252 0.0024 11.2544 0.00266667 11.2571C0.0032 11.2627 0.00453333 11.2683 0.00533333 11.2742C0.00666667 11.2832 0.00773333 11.2923 0.0096 11.3011C0.0101333 11.3038 0.0104 11.3067 0.0109333 11.3094C0.0109333 11.3096 0.0109333 11.3102 0.0112 11.3104C0.0122667 11.3155 0.0138667 11.3203 0.0149333 11.3254C0.0170667 11.3342 0.0192 11.343 0.0216 11.3518C0.024 11.36 0.0269333 11.3683 0.0298667 11.3766C0.0328 11.3846 0.0354667 11.3928 0.0386667 11.4008C0.0421333 11.4094 0.0461333 11.4176 0.0498667 11.4259C0.0533333 11.4331 0.0565333 11.4406 0.0602667 11.4475C0.0653333 11.4568 0.0706667 11.4662 0.0762667 11.4752C0.0797333 11.4808 0.0829333 11.4867 0.0866667 11.4923C0.0933333 11.5024 0.100533 11.512 0.108 11.5219C0.110933 11.5256 0.113333 11.5296 0.116267 11.5331L0.122133 11.5403C0.122133 11.5403 0.1224 11.5408 0.122667 11.5408L2.2496 14.1995C2.4336 14.4296 2.76933 14.4667 2.9992 14.2827C3.22933 14.0987 3.2664 13.763 3.0824 13.5331L1.64213 11.7328H15.4659C15.7605 11.7328 15.9992 11.4942 15.9992 11.1995C15.9992 10.9048 15.7605 10.6662 15.4659 10.6662H1.64293L3.0832 8.86591C3.2672 8.63604 3.22987 8.30031 3 8.11631C2.9016 8.03764 2.784 7.99951 2.6672 7.99951C2.51067 7.99951 2.35573 8.06804 2.2504 8.19978L0.1232 10.859C0.1232 10.859 0.122933 10.8595 0.122667 10.8595L0.1168 10.8667C0.113867 10.8704 0.111467 10.8744 0.108533 10.8779C0.101067 10.8875 0.0938667 10.8974 0.0872 10.9075C0.0834667 10.9131 0.0802667 10.9187 0.0768 10.9246H0.0770667Z" fill="black" fill-opacity="0.45"/>
</svg>