<svg xmlns="http://www.w3.org/2000/svg" width="24" height="24" viewBox="0 0 24 24" fill="none">
  <path d="M8.4 21C6.8934 21 5.5029 20.019 4.485 18.2373C3.5274 16.5615 3 14.3463 3 12C3 9.6537 3.5274 7.4382 4.485 5.7627C5.5029 3.9813 6.8934 3 8.4 3C10.011 3 11.5185 4.1568 12.5358 6.1734L12.672 6.4437L12.5358 6.714C11.8035 8.1663 11.4 10.0437 11.4 12.0003C11.4 13.9569 11.8032 15.834 12.5358 17.2866L12.672 17.5569L12.5358 17.8272C11.5185 19.8441 10.0113 21.0006 8.4 21.0006V21ZM8.4 4.2C7.3425 4.2 6.3219 4.9665 5.5269 6.3579C4.6713 7.8552 4.2 9.8589 4.2 12C4.2 14.1411 4.6713 16.1448 5.5269 17.6421C6.3222 19.0338 7.3425 19.8 8.4 19.8C9.4575 19.8 10.5351 18.9822 11.328 17.5446C10.599 15.9726 10.2 14.0181 10.2 12C10.2 9.9819 10.599 8.0274 11.328 6.4554C10.5351 5.0178 9.4785 4.2 8.4 4.2Z" fill="black"/>
  <path d="M15.6 21C13.989 21 12.4815 19.8432 11.4642 17.8266C10.6488 16.2099 10.2 14.1405 10.2 12C10.2 9.8595 10.6491 7.7904 11.4642 6.1737C12.4815 4.1568 13.989 3 15.6 3C17.1066 3 18.4971 3.981 19.515 5.7627C20.4726 7.4385 21 9.6537 21 12C21 14.3463 20.4726 16.5618 19.515 18.2373C18.4971 20.0187 17.1066 21 15.6 21ZM15.6 4.2C14.4585 4.2 13.3416 5.1162 12.5358 6.714C11.8035 8.1663 11.4 10.0437 11.4 12C11.4 13.9563 11.8032 15.8337 12.5358 17.2863C13.3416 18.8838 14.4585 19.8 15.6 19.8C16.6575 19.8 17.6781 19.0335 18.4731 17.6421C19.3287 16.1448 19.8 14.1411 19.8 12C19.8 9.8589 19.3287 7.8552 18.4731 6.3579C17.6778 4.9662 16.6575 4.2 15.6 4.2Z" fill="black"/>
  <path d="M14.1 11.4C15.0941 11.4 15.9 10.5941 15.9 9.59999C15.9 8.60588 15.0941 7.79999 14.1 7.79999C13.1059 7.79999 12.3 8.60588 12.3 9.59999C12.3 10.5941 13.1059 11.4 14.1 11.4Z" fill="black"/>
  <path d="M6.90001 11.4C7.89412 11.4 8.70001 10.5941 8.70001 9.59999C8.70001 8.60588 7.89412 7.79999 6.90001 7.79999C5.90589 7.79999 5.10001 8.60588 5.10001 9.59999C5.10001 10.5941 5.90589 11.4 6.90001 11.4Z" fill="black"/>
</svg>