<?xml version="1.0" encoding="UTF-8"?>
<svg id="Layer_2" data-name="Layer 2" xmlns="http://www.w3.org/2000/svg" viewBox="0 0 320 320">
  <defs>
    <style>
      .cls-1 {
        fill: none;
      }

      .cls-1, .cls-2, .cls-3, .cls-4, .cls-5 {
        stroke-width: 0px;
      }

      .cls-2 {
        fill: #9f99e5;
      }

      .cls-3 {
        fill: #000;
      }

      .cls-4 {
        fill: #f7a477;
      }

      .cls-5 {
        fill: #fff;
      }
    </style>
  </defs>
  <g id="Layer_3_copy_3" data-name="Layer 3 copy 3">
    <g>
      <g>
        <rect class="cls-5" width="320" height="320"/>
        <path class="cls-3" d="M213.83,110l-4,40-.3,2.98c-3.9-1.91-8.28-2.98-12.94-2.98-2.35,0-4.64.28-6.84.79-4.91,1.17-9.36,3.56-13,6.85-3.66,3.32-6.5,7.55-8.13,12.36-.73,2.1-1.22,4.33-1.45,6.63l-.09.85s-.01.05-.01.08c-.42,4.36.12,8.58,1.46,12.44,2.6,7.62,8.26,13.9,15.57,17.27,3.76,1.75,7.96,2.73,12.41,2.73h26.76l2-20,.66-6.63.09-.85s0-.05.01-.07l1.24-12.45,6-60h-19.44ZM206.76,180.74c-.01.06-.01.13-.02.2v.1s-.02.09-.03.14c-.57,5.02-4.82,8.82-9.88,8.82-5.82,0-10.38-4.96-9.93-10.74.01-.06.01-.13.02-.2v-.1s.02-.09.03-.14c.57-5.02,4.82-8.82,9.88-8.82,5.55,0,9.96,4.52,9.96,9.94,0,.26-.01.53-.03.8Z"/>
        <path class="cls-3" d="M156.27,180l-.24,2.45s-.01.05-.01.07l-.09.85-.66,6.63-2,20h-26.76c-4.45,0-8.65-.98-12.41-2.73-7.31-3.37-12.97-9.65-15.57-17.27-1.09-3.13-1.65-6.51-1.59-10h19.93c-.03,5.46,4.39,10,9.96,10,5.06,0,9.31-3.8,9.88-8.82.01-.05.02-.09.02-.14v-.1c.02-.07.02-.14.03-.2l.07-.74h19.44Z"/>
        <polygon class="cls-2" points="119.83 150 119.75 150.79 117.83 170 97.83 170 99.83 150 119.83 150"/>
        <polygon class="cls-4" points="159.27 150 157.27 170 137.83 170 139.53 152.98 139.83 150 159.27 150"/>
        <polygon class="cls-3" points="85.27 190 83.27 210 23.83 210 33.83 110 53.83 110 45.83 190 85.27 190"/>
        <path class="cls-3" d="M237.17,176.63l-.09.86c-1.74,17.41,11.93,32.52,29.43,32.52h0c15.19,0,27.91-11.51,29.43-26.63l.09-.86c1.74-17.41-11.93-32.52-29.43-32.52h0c-15.19,0-27.91,11.51-29.43,26.63ZM266.83,190h0c-5.89,0-10.49-5.08-9.9-10.94v-.1c.52-5.09,4.8-8.96,9.91-8.96h0c5.89,0,10.49,5.08,9.9,10.94v.1c-.52,5.09-4.8,8.96-9.91,8.96Z"/>
      </g>
      <rect class="cls-1" width="320" height="320"/>
    </g>
  </g>
</svg>