


<svg width="48" height="48" viewBox="0 0 48 48" fill="none" xmlns="http://www.w3.org/2000/svg">
<g id="&#236;&#149;&#140;&#235;&#166;&#188;">
<g id="Group">
<path id="Vector" d="M32.88 29.04C31.4034 27.0708 31.2 25.1658 31.2 23.4V18C31.2 15.9258 30.3696 13.9776 28.8624 12.5148C27.3756 11.0718 25.2876 10.1274 22.8 9.7662V7.8C22.8 6.8076 21.9924 6 21 6H19.8C18.8076 6 18 6.8076 18 7.8V9.7662C15.5124 10.1274 13.4244 11.0718 11.9376 12.5148C10.4304 13.9776 9.6 15.9258 9.6 18V23.4C9.6 25.1658 9.3966 27.0708 7.92 29.04C6.0774 31.4964 6 32.2134 6 33.6C6 35.1252 6.8748 36 8.4 36H13.8276C14.1312 39.3588 16.9632 42 20.4 42C23.8368 42 26.6688 39.3588 26.9724 36H32.4C33.9252 36 34.8 35.1252 34.8 33.6C34.8 32.2134 34.7226 31.4964 32.88 29.04ZM19.2 7.8C19.2 7.4694 19.4694 7.2 19.8 7.2H21C21.3306 7.2 21.6 7.4694 21.6 7.8V9.6396C21.2076 9.6132 20.8062 9.6 20.4 9.6C19.9938 9.6 19.5924 9.6132 19.2 9.6396V7.8ZM20.4 40.8C17.625 40.8 15.3324 38.6964 15.033 36H25.767C25.4676 38.6964 23.175 40.8 20.4 40.8ZM32.4 34.8H8.4C7.5366 34.8 7.2 34.4634 7.2 33.6C7.2 32.5014 7.2 31.9998 8.88 29.76C10.5672 27.51 10.8 25.3734 10.8 23.4V18C10.8 14.3826 13.6026 11.6784 18 10.98C18.2178 10.9452 18.4392 10.9158 18.6648 10.8912C18.8406 10.872 19.0188 10.8558 19.2 10.8432C19.5906 10.8144 19.9926 10.8 20.4 10.8C20.8074 10.8 21.2094 10.8144 21.6 10.8432C21.7806 10.8558 21.9594 10.872 22.1346 10.8912C22.3602 10.9158 22.5822 10.9452 22.8 10.98C27.1974 11.6784 30 14.3826 30 18V23.4C30 25.3734 30.2328 27.51 31.92 29.76C33.6 31.9998 33.6 32.5014 33.6 33.6C33.6 34.4634 33.2634 34.8 32.4 34.8Z" fill="black" fill-opacity="0.45"/>
<path id="Vector_2" d="M42 15.1198V29.2798C42 30.0088 41.409 30.5998 40.68 30.5998H36.2946C35.9634 30.5998 35.6946 30.331 35.6946 29.9998C35.6946 29.8342 35.7618 29.6842 35.8704 29.5756C35.979 29.467 36.129 29.3998 36.2946 29.3998H40.68C40.746 29.3998 40.8 29.3458 40.8 29.2798V15.5194L33.8322 20.1568C33.5562 20.3404 33.1836 20.266 33 19.99C32.8164 19.714 32.8914 19.3414 33.1668 19.1578L39.4158 14.9998H32.8914C32.5602 14.9998 32.2914 14.731 32.2914 14.3998C32.2914 14.2342 32.3586 14.0842 32.4672 13.9756C32.5758 13.867 32.7258 13.7998 32.8914 13.7998H40.68C40.9926 13.7998 41.295 13.9108 41.5326 14.1118C41.8296 14.3632 42 14.7304 42 15.1198Z" fill="black" fill-opacity="0.45"/>
</g>
</g>
</svg>
